<svg width="47" height="25" viewBox="0 0 47 25" fill="none" xmlns="http://www.w3.org/2000/svg">
<path d="M46.3535 0.435302L23.3535 23.4353L0.353515 0.435302" stroke="#2D4059"/>
<path d="M46.3535 0.435303L23.3535 13.4353L0.353516 0.435303" stroke="#2D4059"/>
<path d="M5.11097 4.42285C5.15741 4.46158 5.25051 4.52365 5.34011 4.60917C5.42203 4.68735 5.50717 4.75698 5.60062 4.83865C5.68688 4.91403 5.86417 4.99778 6.00114 5.0721C6.10729 5.1297 6.20717 5.17698 6.28125 5.25865C6.35606 5.34112 6.46383 5.38698 6.55728 5.44928C6.65293 5.51304 6.90577 5.61191 7.07061 5.70595C7.16817 5.76159 7.25716 5.83031 7.35831 5.92353C7.49208 6.0468 7.5913 6.13364 7.72383 6.23468C7.83228 6.31735 7.93383 6.38238 8.05049 6.45261C8.16162 6.51951 8.25256 6.60031 8.37331 6.70134C8.46542 6.77841 8.56382 6.83364 8.66112 6.94237C8.76951 7.0635 8.85176 7.15237 8.93727 7.22645C9.03113 7.30777 9.12382 7.3703 9.22871 7.48662C9.4593 7.74235 9.56715 7.7903 9.67997 7.87582C9.79206 7.96078 9.90922 8.07777 10.1188 8.2138C10.5051 8.46461 10.6171 8.5603 10.7221 8.6303C10.9187 8.76131 11.1454 8.9565 11.3636 9.16265C11.47 9.26324 11.5738 9.3611 11.7366 9.50471C12.2103 9.92273 12.3979 10.0765 12.5266 10.1858C12.6254 10.2697 12.8016 10.4494 12.9312 10.5786C13.0288 10.6759 13.1374 10.7616 13.157 10.781C13.223 10.8467 12.9747 10.692 12.8619 10.6491C12.7558 10.6087 12.6406 10.5287 12.5236 10.447C12.4022 10.3623 12.2981 10.3187 12.2009 10.2293C11.9511 9.99959 11.6293 9.83663 11.528 9.74703C11.4404 9.66963 11.3027 9.67283 11.209 9.61869C11.1579 9.58918 11.1545 9.51743 11.0964 9.49409C10.9368 9.47846 10.8127 9.46283 10.7347 9.46283C10.7184 9.46283 10.7492 9.46283 10.7809 9.41616" stroke="#2D4059" stroke-width="2" stroke-linecap="round"/>
<path d="M12.9656 10.6936C13.0741 10.7788 13.2138 10.8877 13.4997 11.0692C13.7277 11.2139 14.1089 11.4893 14.3188 11.6397C14.6408 11.8704 14.8392 12.0152 14.9678 12.1243C15.1483 12.2775 15.2825 12.4039 15.45 12.5326C15.6817 12.7107 16.0525 13.0106 16.2083 13.1393C16.4788 13.3628 16.8925 13.6798 17.0987 13.8313C17.2192 13.9199 17.4745 14.0989 17.7402 14.3134C17.9763 14.504 18.3369 14.7592 18.6347 14.9901C18.9244 15.2146 19.0238 15.3519 19.1561 15.4648C19.4129 15.684 19.7467 15.9739 19.9026 16.1025C20.1616 16.3159 20.3225 16.4485 20.4705 16.5653C20.6702 16.723 20.8662 16.868 21.019 16.9932C21.1279 17.0824 21.3557 17.2568 21.5903 17.4053C21.8248 17.5537 21.9171 17.6544 22.1541 17.8174C22.2844 17.907 22.4608 18.058 22.6095 18.1871C22.741 18.3011 22.8504 18.4239 22.9673 18.5526C22.9917 18.5793 23.0063 18.6031 22.995 18.6189C22.9629 18.6636 22.5513 18.4885 21.9377 18.1935C21.5097 17.9877 21.2885 17.8184 21.091 17.7023C20.592 17.409 20.526 17.2894 20.4017 17.1653C20.2771 17.0408 20.1062 16.9243 19.751 16.6191C19.4698 16.3775 18.9645 15.9828 18.6567 15.7457C18.256 15.4372 18.0839 15.3297 17.9637 15.2326C17.7174 15.0339 17.4619 14.8087 17.1398 14.506C16.8187 14.2044 16.6606 14.1007 16.5205 13.9879C16.4105 13.8993 16.2719 13.8053 16.1355 13.7116C15.9861 13.609 15.7819 13.5328 15.661 13.4666C15.4854 13.3705 15.3152 13.2915 15.0471 13.1558C14.8571 13.0597 14.7006 12.9261 14.5992 12.8561C14.4769 12.7717 14.374 12.6387 14.2726 12.5141C14.1781 12.398 14.1014 12.2887 14.0353 12.1834C13.9586 12.0614 13.7603 11.885 13.6192 11.7672C13.5296 11.6923 13.4173 11.6041 13.2384 11.5338C13.1213 11.4878 13.036 11.4095 12.9464 11.3433C12.8577 11.2778 12.7948 11.1841 12.7092 11.1138C12.666 11.0783 12.6235 11.0438 12.6117 11.0011C12.6064 10.9819 12.6384 10.9661 12.6657 10.9582C12.834 10.9093 13.1046 11.0665 13.3573 11.1173C13.4857 11.1432 13.7029 11.2296 14.0633 11.3808C14.5173 11.5713 14.8395 11.6888 14.9635 11.7625C15.2852 11.9538 15.6013 12.0544 15.885 12.2329C16.1266 12.3849 16.3871 12.5211 16.535 12.6415C16.6037 12.6975 16.9448 12.9313 17.3997 13.2928C17.7217 13.5488 17.9817 13.7731 18.0752 13.8472C18.1895 13.9379 18.3546 14.0993 18.4911 14.2088C18.6964 14.3733 18.8371 14.4811 19.0121 14.644C19.1152 14.74 19.2646 14.8693 19.378 14.9672C19.4823 15.0572 19.6071 15.1811 19.7085 15.2472C19.8125 15.3151 19.8797 15.4064 19.9807 15.4805C20.0895 15.5603 20.2217 15.6477 20.3229 15.7332C20.4466 15.8379 20.5638 15.9044 20.6652 15.9705C20.7783 16.0443 20.8751 16.1531 20.9685 16.2233C21.0618 16.2935 21.1397 16.3864 21.2639 16.4837C21.379 16.5738 21.443 16.6664 21.5091 16.756C21.6491 16.9456 21.9484 17.1798 22.0612 17.2926C22.1894 17.4208 22.3605 17.5918 22.4425 17.6932C22.5206 17.7898 22.6017 17.8644 22.6796 17.9537C22.7865 18.0763 22.8817 18.1831 22.9519 18.2766C22.9676 18.3 22.983 18.3231 22.9986 18.3504C23.0142 18.3777 23.0296 18.4085 23.0688 18.4869" stroke="#2D4059" stroke-width="2" stroke-linecap="round"/>
<path d="M24.0022 20.8902C24.0022 21.2526 23.9714 21.8936 23.9132 21.882C23.7933 21.8582 23.7381 21.7307 23.6835 21.668C23.6529 21.633 23.6832 21.7844 23.6833 21.8233C23.6834 21.8345 23.6527 21.8161 23.6331 21.7928C23.5401 21.6821 23.4357 21.3821 23.3064 21.1591C23.2386 21.0423 23.1547 20.9374 23.0924 20.8439C23.0217 20.7378 22.9214 20.634 22.8591 20.5406C22.7968 20.4471 22.7193 20.354 22.6414 20.2567C22.5466 20.1383 22.4165 20.0045 22.3186 19.8834C22.2008 19.7376 22.0427 19.5994 21.9492 19.4945C21.8486 19.3816 21.716 19.2807 21.5761 19.1679C21.4083 19.0325 21.2106 18.9228 21.1054 18.8334C20.9794 18.7264 20.876 18.6428 20.7632 18.5417C20.6666 18.4552 20.5727 18.3628 20.4637 18.2773C20.3469 18.1856 20.1685 18.052 20.0011 17.9544C19.8103 17.8433 19.5306 17.6553 19.4215 17.5462C19.2889 17.4136 19.1881 17.344 19.0871 17.2893C18.9902 17.2369 18.916 17.1494 18.8187 17.0833C18.6955 16.9995 18.5819 16.862 18.4687 16.7567C18.3557 16.6516 18.2627 16.574 18.1654 16.4961C18.047 16.4013 17.9748 16.302 17.8699 16.2044C17.7803 16.1212 17.664 16.022 17.5587 15.9206C17.4488 15.8147 17.314 15.7187 17.2126 15.6366C17.1162 15.5587 17.0186 15.4233 16.8899 15.3333C16.7369 15.2263 16.5981 15.0341 16.5087 14.898C16.4179 14.7598 16.2873 14.6533 16.1396 14.517C15.8986 14.2947 15.7973 14.1787 15.5759 13.9572C15.5248 13.9061 15.494 13.8753 15.4897 13.8518C15.4853 13.8282 15.5084 13.8128 15.5396 13.8203C15.6992 13.8585 15.8192 13.9985 16.4143 14.4274C16.8408 14.7347 17.5935 15.3481 18.0632 15.7307C18.6972 16.2471 18.8918 16.441 18.981 16.5108C19.144 16.6382 19.2492 16.7518 19.4011 16.8764C19.548 16.9969 19.6618 17.1177 19.79 17.2225C20.021 17.4112 20.1205 17.6539 20.2993 17.8833C20.4041 18.0176 20.4784 18.1593 20.5448 18.3036C20.5603 18.3373 20.5643 18.3772 20.5567 18.4048C20.5491 18.4323 20.526 18.4477 20.4872 18.4556C20.296 18.4947 20.1604 18.3782 20.1174 18.351C20.1068 18.3443 20.1438 18.3315 20.1712 18.3352C20.2799 18.35 20.3617 18.4631 20.4667 18.6068C20.607 18.7988 20.7117 18.9452 20.8207 19.0659C20.9012 19.1551 20.9684 19.241 21.0425 19.3227C21.1173 19.4052 21.2405 19.4664 21.3806 19.5948C21.4732 19.6796 21.5597 19.7464 21.6452 19.8167C21.7354 19.8908 21.8317 19.9644 21.9058 20.0499C21.987 20.1436 22.1192 20.1977 22.2053 20.2832C22.2838 20.3612 22.3838 20.4464 22.551 20.5669C22.7078 20.68 22.8038 20.7885 22.9246 20.9092C23.0259 21.0106 23.1384 21.0844 23.2049 21.1428C23.2014 21.1546 23.1706 21.1623 23.1355 21.1663C23.1004 21.1702 23.0619 21.1702 23.0222 21.1702" stroke="#2D4059" stroke-width="2" stroke-linecap="round"/>
<path d="M29.5439 14.4941C29.5208 14.5716 29.4277 14.6649 29.3149 14.7543C29.1983 14.8467 29.1165 14.937 29.0039 15.0343C28.856 15.1621 28.7044 15.2249 28.6071 15.3066C28.5017 15.3951 28.2854 15.4503 28.1211 15.4897C28.0907 15.4969 28.059 15.4821 28.0355 15.4666C27.9896 15.4364 27.9652 15.381 27.9419 15.3229C27.8823 15.1747 27.9806 15.0392 27.9884 14.9377C27.9949 14.8542 27.8565 15.077 27.7671 15.1511C27.6562 15.243 27.5457 15.3029 27.4598 15.3728C27.3678 15.4476 27.1962 15.4816 27.0284 15.5207C26.8996 15.5507 26.7911 15.5983 26.6976 15.6606C26.6005 15.7253 26.4957 15.8083 26.3362 15.9519C26.2295 16.048 26.1378 16.1116 26.0405 16.1971C25.9293 16.2948 25.8111 16.3603 25.7021 16.415C25.5987 16.467 25.5078 16.5549 25.4337 16.6366C25.3589 16.7191 25.2511 16.7803 25.1421 16.8738C25.0501 16.9527 24.9478 17.0216 24.8543 17.0839C24.7609 17.1462 24.6524 17.1929 24.5084 17.2472C24.3777 17.2966 24.2557 17.3483 24.1234 17.3835C23.9649 17.4257 23.8511 17.4416 23.4826 17.4767C23.3998 17.4846 23.5538 17.9283 23.7444 18.4881C23.8601 18.8282 23.874 18.9891 23.9127 19.2373C23.9693 19.6002 23.9981 19.7124 24.0217 19.8408C24.0482 19.9852 24.1227 20.0857 24.2003 20.2103C24.2794 20.3374 24.3868 20.4203 24.4803 20.4905C24.525 20.5242 24.6122 20.599 24.7056 20.6269C25.0389 20.7265 24.7606 20.0951 24.7992 19.9507C24.8457 19.7773 24.9781 19.7059 24.9978 19.4263C25.0095 19.2605 25.056 19.1071 25.1142 18.9786C25.2047 18.7789 25.2348 18.6479 25.3203 18.5002C25.4031 18.3572 25.5689 18.2046 25.7322 18.0143C25.842 17.8864 25.9502 17.7925 26.1945 17.548C26.4688 17.2734 26.6343 17.2092 26.894 17.0036C27.5554 16.4801 27.801 16.4154 27.9025 16.3378C28.0467 16.2276 28.1976 16.1513 28.5044 16.0268C28.6998 15.9475 28.8747 15.8787 28.9137 15.8708C29.0324 15.8466 28.7203 16.1345 28.6226 16.2515C28.5078 16.3891 28.3936 16.5386 28.2572 16.7682C28.0961 17.0394 27.7809 17.4313 27.5805 17.6321C27.4631 17.7496 27.3978 17.8383 26.8589 18.3692C26.6767 18.5487 26.6044 18.647 26.2786 18.969C26.1425 19.1035 26.029 19.2224 25.893 19.3972C25.6526 19.706 25.4998 19.7591 25.3949 19.8643C25.2975 19.9772 25.2275 20.0395 25.1771 20.0667C25.1498 20.0785 25.119 20.0862 25.0873 20.0475" stroke="#2D4059" stroke-width="2" stroke-linecap="round"/>
<path d="M36.0044 9.09253C35.9113 9.1777 35.7566 9.33286 35.4611 9.62418C35.262 9.8204 35.1415 9.91666 35.0713 10.0022C35.001 10.0877 34.8928 10.1808 34.7914 10.2822C34.7017 10.3719 34.6049 10.4608 34.4728 10.5969C34.2938 10.7814 34.2003 10.8421 34.1109 10.9355C34.0021 11.0493 33.8353 11.1608 33.5748 11.3629C33.3933 11.5037 33.2133 11.6508 33.0919 11.7328C32.9962 11.7975 32.9015 11.8921 32.7849 11.9855C32.6633 12.0829 32.5361 12.1567 32.4348 12.2189C32.3391 12.2778 32.2328 12.3587 32.1044 12.4715C31.975 12.5852 31.8441 12.7162 31.5837 12.9804C31.4645 13.1014 31.3849 13.2374 31.2644 13.3736C31.1202 13.5365 31.0736 13.642 31.0113 13.7393C30.9418 13.848 30.8716 13.9608 30.7587 14.1473C30.6693 14.2952 30.6536 14.412 30.5836 14.517C30.4788 14.6743 30.4049 14.8008 30.3347 14.9022C30.2707 14.9945 30.1949 15.1195 30.1014 15.2327C30.0785 15.2604 30.0549 15.2908 30.0507 15.2951C29.9796 15.3682 30.2402 14.9585 30.5511 14.4998C30.7217 14.248 30.7773 14.0555 31.0644 13.7293C31.207 13.5673 31.3681 13.4642 31.4968 13.3667C31.5894 13.2965 31.6947 13.215 31.8233 13.145C32.0191 13.0385 32.1306 12.9817 32.2202 12.8653C32.3254 12.7286 32.3565 12.6009 32.407 12.4957C32.4593 12.3868 32.5119 12.2742 32.5548 12.1496C32.6098 11.99 32.7293 11.7614 32.8346 11.555C32.9463 11.3359 33.0019 11.2397 33.0642 11.1424C33.1337 11.0337 33.2193 10.9055 33.3556 10.7575C33.4399 10.6659 33.5306 10.6017 33.6124 10.5201C33.7173 10.4153 33.8339 10.3684 33.916 10.3292C34.0836 10.2491 33.4704 10.6237 33.2092 10.7565C33.0057 10.8601 32.9095 10.9587 32.7772 11.0444C32.5914 11.1646 32.4815 11.2621 32.2293 11.433C32.0741 11.5382 31.9682 11.62 31.8322 11.7404C31.6605 11.8923 31.3466 12.0708 31.1788 12.1915C31.0567 12.2795 30.9649 12.3587 30.8522 12.4482C30.6573 12.603 30.5374 12.7162 30.4012 12.8292C30.1673 13.0232 30.0628 13.1208 29.9421 13.2415C29.8484 13.3352 29.7516 13.4241 29.5962 13.5642C29.4811 13.668 29.4016 13.7433 29.3043 13.8211C29.1913 13.8679 28.9442 14.007 28.7521 14.1089C28.7247 14.1246 28.7016 14.14 28.6544 14.1792" stroke="#2D4059" stroke-width="2" stroke-linecap="round"/>
<path d="M36.0685 9.15656C36.1537 9.0945 36.3397 8.98623 36.5306 8.90013C36.7148 8.81709 36.846 8.6437 36.9315 8.57347C37.017 8.50321 37.0793 8.41037 37.2036 8.28204C37.2977 8.18483 37.4135 8.0683 37.5187 7.96692C37.62 7.86928 37.7014 7.79577 37.7755 7.71411C37.8496 7.63243 37.9501 7.56244 38.0321 7.48077C38.1144 7.39886 38.2147 7.31371 38.3082 7.24347C38.3967 7.17697 38.4714 7.09577 38.561 7.02963C38.6497 6.96413 38.728 6.87038 38.7983 6.77693C38.8658 6.68714 38.938 6.59038 39.0121 6.50078C39.0871 6.41013 39.218 6.35704 39.3076 6.28296C39.3926 6.2127 39.4747 6.13911 39.5488 6.0536C39.6337 5.95564 39.7547 5.90578 39.8288 5.80475C39.9054 5.70029 40.0347 5.61038 40.1282 5.5363C40.2255 5.45915 40.2993 5.37705 40.4042 5.30682C40.5003 5.24248 40.5793 5.16705 40.6842 5.09297C40.7881 5.01958 40.8747 4.94912 40.9682 4.88682C41.0616 4.81682 41.1547 4.73912 41.2443 4.6536C41.2639 4.63015 41.2793 4.60705 41.2952 4.58325" stroke="#2D4059" stroke-width="2" stroke-linecap="round"/>
<path d="M4.71094 3.7343C4.68667 3.7274 4.62411 3.67886 4.56468 3.6368C4.50808 3.59674 4.47053 3.56357 4.42167 3.51654C4.38328 3.47959 4.35189 3.44158 4.30659 3.41705C4.26296 3.39343 4.23347 3.34387 4.18801 3.31594C4.16714 3.30203 4.14266 3.28801 4.11828 3.27237C4.10772 3.26363 4.10081 3.25327 4.07277 3.22168" stroke="#2D4059" stroke-width="2" stroke-linecap="round"/>
<path d="M22.2167 15.3649C22.1441 15.3105 22.0716 15.2561 21.8031 15.0604C21.5346 14.8647 21.0722 14.5293 20.8159 14.3474C20.4212 14.0673 20.2031 13.8821 20.0699 13.7949C19.92 13.6967 19.7724 13.6255 19.6442 13.5522C19.4007 13.4128 19.1405 13.3508 18.9987 13.2957C18.8189 13.226 18.6648 13.1129 18.185 12.8889C17.9295 12.7696 17.6945 12.6371 17.3875 12.4628C17.2179 12.3665 16.7902 12.1163 16.4761 11.9544C16.3019 11.8646 16.0743 11.7031 15.8626 11.5654C15.4889 11.3221 15.103 11.0988 14.8464 10.9336C14.6841 10.8291 14.3986 10.6323 13.9323 10.3258C13.3785 9.9617 12.9781 9.66072 12.8639 9.57392C12.6311 9.3971 12.401 9.18466 12.2776 9.08385C12.0531 8.90035 11.9433 8.79074 11.838 8.64913C11.6715 8.42533 11.5313 8.36055 11.4212 8.25507C11.3239 8.16173 11.2198 8.08585 11.1191 7.98036C11.0228 7.87951 10.9269 7.75621 10.7486 7.59152C10.5289 7.38855 10.2506 7.23482 10.098 7.10131C9.99934 7.015 9.90118 6.9321 9.80504 6.84488C9.70888 6.75766 9.62648 6.6574 9.57566 6.60191C9.42358 6.43586 9.88195 6.83925 9.99197 6.93127C10.1031 7.02419 10.2753 7.12329 10.4268 7.22878C10.5554 7.31832 10.6786 7.43481 10.9026 7.55375C10.9827 7.59625 11.045 7.63644 11.0728 7.65484C11.2028 7.74109 10.7626 7.50897 10.579 7.38069C10.46 7.29753 10.3319 7.2068 10.1579 7.10131C9.94617 6.97298 9.7001 6.84035 9.58074 6.767C9.55247 6.74963 9.52594 6.73047 9.53006 6.72566C9.62005 6.62066 9.89953 6.91232 10.1744 7.08648C10.5162 7.30307 10.7149 7.41613 11.1581 7.68135C11.4698 7.8679 11.6857 7.98421 11.8459 8.06209C12.0544 8.16338 12.2526 8.29517 12.4595 8.39173C12.6403 8.47615 12.8119 8.58856 12.9358 8.6619C13.0665 8.73926 13.1784 8.80832 13.2884 8.8862C13.4077 8.97067 13.508 9.05555 13.618 9.15623C13.7377 9.26568 13.8651 9.37585 13.9797 9.46761C14.1299 9.58792 14.2772 9.6599 14.41 9.75604C14.5285 9.84182 14.698 9.90713 14.8313 10.0033C14.9891 10.1172 15.1837 10.2093 15.3301 10.31C15.5167 10.4383 15.6688 10.5389 15.8063 10.6442C15.9982 10.791 16.1721 10.8867 16.3375 10.9967C16.492 11.0995 16.6396 11.1889 16.7725 11.2488C16.8943 11.3037 17.0149 11.3905 17.1478 11.4729C17.3305 11.5862 17.4544 11.6652 17.5874 11.7659C17.761 11.8974 17.9214 11.9674 18.1045 12.0681C18.3095 12.1808 18.4796 12.2602 18.6267 12.3703C18.8301 12.5224 19.1389 12.6448 19.3727 12.7503C19.5466 12.8288 20.0514 13.0739 20.5443 13.3405C20.7616 13.4581 20.8882 13.5513 21.0622 13.6523C21.2129 13.7397 21.3371 13.7804 21.4471 13.8583C21.5987 13.9656 21.7947 14.1007 21.9825 14.2746C22.1012 14.3846 22.2617 14.4579 22.3673 14.5724C22.5047 14.7213 22.6556 14.7875 22.7657 14.8747C22.8913 14.9743 23.0402 15.0622 23.1776 15.1494C23.3427 15.2543 23.48 15.3281 23.5076 15.3737C23.5985 15.5238 23.0523 15.7841 22.8261 15.9643C22.7695 16.0094 22.7114 16.0423 22.6702 16.0879C22.6495 16.1108 22.6562 16.1517 22.6743 16.1749C22.6924 16.1981 22.7287 16.2072 22.7519 16.1937C22.8705 16.125 22.8847 15.9424 22.9353 15.805C22.99 15.6564 23.0496 15.494 23.1184 15.3563C23.1954 15.202 23.2237 15.027 23.224 14.6931C23.2241 14.6229 23.1968 14.5963 23.2011 14.5959C23.3145 14.5849 23.3243 14.815 23.3839 14.9705C23.4772 15.2139 23.544 15.3732 23.59 15.5975C23.654 15.9091 23.6451 16.3692 23.7226 16.5461C23.7808 16.6791 23.8825 16.1995 24.0789 15.8704C24.5289 15.1163 24.7159 14.9902 24.8305 14.8435C24.9877 14.6422 25.1922 14.459 25.4343 14.3033C25.6028 14.1949 25.7411 14.1106 25.9883 14.0284C26.1728 13.967 26.3548 13.8727 26.4427 13.8541C26.7611 13.7864 25.9356 13.9453 25.6701 13.9821C25.1235 14.0579 24.8912 14.1288 24.7582 14.1925C24.5612 14.3026 24.3786 14.3392 24.2271 14.4032C24.1948 14.4216 24.1676 14.4397 24.1396 14.4584" stroke="#2D4059" stroke-width="2" stroke-linecap="round"/>
<path d="M39.1418 5.3418C39.1237 5.39646 38.9237 5.61485 38.7805 5.80824C38.6805 5.94321 38.6111 6.05548 38.4192 6.25216C38.3077 6.36646 38.2265 6.46753 38.1123 6.55928C37.9447 6.69384 37.7876 6.78783 37.6589 6.87986C37.5451 6.96121 37.4299 7.04441 37.3292 7.12709C37.227 7.21101 37.0552 7.34603 36.8944 7.45673C36.7822 7.53392 36.6519 7.60315 36.5235 7.68103C36.3519 7.78513 36.2305 7.90532 36.0887 8.01507C35.9011 8.16015 35.6729 8.33496 35.4843 8.46847C35.3352 8.57401 35.196 8.64702 34.9263 8.7933C34.7202 8.90504 34.4829 9.03106 34.2391 9.15522C34.0765 9.23801 33.8956 9.33378 33.7265 9.40245C33.4014 9.5345 33.2912 9.66342 33.1812 9.7413C33.04 9.84125 32.7885 9.99252 32.5361 10.1668C32.3653 10.2847 32.1474 10.432 31.9727 10.579C31.8402 10.6904 31.6617 10.7985 31.533 10.8951C31.3901 11.0023 31.2128 11.1193 31.0161 11.2291C30.7401 11.3831 30.4453 11.5578 30.2146 11.7145C30.0359 11.8359 29.7668 12.0253 29.4962 12.1996C29.2576 12.3533 29.0883 12.383 28.9692 12.4837C28.8034 12.6238 28.5938 12.6577 28.2969 12.7721C28.1284 12.837 27.9988 12.8868 27.8249 12.9599C27.5438 13.078 27.4126 13.1247 27.2798 13.1752C27.1286 13.2328 26.9731 13.3444 26.872 13.3859C26.7131 13.4511 26.1308 13.4268 26.0204 13.4638C25.9135 13.4996 26.2759 13.3999 26.4452 13.3314C26.7086 13.2248 27.3153 13.117 27.6862 13.0336C27.8337 13.0004 27.9337 12.9604 27.9432 12.9329C28.0029 12.7599 27.578 12.9967 27.3763 13.0515C26.9806 13.159 26.7808 13.3444 26.6208 13.3858C26.3173 13.4642 26.0858 13.6373 25.9017 13.7154C25.7589 13.7761 25.627 13.8389 25.3073 13.9579C25.1952 13.9995 25.1232 14.0405 25.0909 14.0635C24.9801 14.1423 25.3875 13.9768 25.712 13.8764C26.0583 13.7693 26.2841 13.6477 26.473 13.5557C26.5953 13.4961 26.6973 13.4093 26.8118 13.3314C26.9537 13.2349 27.0818 13.162 27.1691 13.0659C27.1909 13.0418 27.2192 13.0247 27.2241 13.0017C27.2291 12.9788 27.211 12.9516 27.1925 12.9512C27.0859 12.9488 26.9912 13.0151 26.9453 13.0152C26.8467 13.0155 27.1093 12.8599 27.2421 12.8093C27.3744 12.759 27.5302 12.6494 27.6862 12.5896C27.834 12.5328 27.979 12.4753 28.144 12.3335C28.2581 12.2355 28.4004 12.2006 28.5378 12.1044C28.6674 12.0137 28.8394 11.9533 28.9774 11.88C29.1009 11.8144 29.2427 11.7336 29.4532 11.6374C29.5934 11.5734 29.719 11.5138 29.9202 11.4177C30.056 11.3528 30.1585 11.2666 30.3597 11.1248C30.4869 11.0353 30.6706 10.91 30.8634 10.7768C31.0982 10.6146 31.2573 10.5249 31.3901 10.447C31.5193 10.3713 31.7776 10.2051 31.9945 10.1172C32.1299 10.0623 32.355 9.89362 32.6168 9.76493C32.7871 9.6812 32.9599 9.57277 33.1754 9.44448C33.3519 9.33942 33.5099 9.28873 33.6928 9.21085C33.8871 9.12815 34.1774 9.0327 34.7125 8.84495C35.0022 8.74333 35.1762 8.64757 35.3184 8.58357C35.4425 8.52768 35.5427 8.43715 35.6299 8.341C35.7773 8.17856 35.7443 7.7872 35.7722 7.67705C35.8002 7.56635 35.5438 7.82291 35.3882 7.89626C35.2544 7.95931 35.1317 8.06081 34.9989 8.14349C34.8833 8.21544 34.7746 8.28991 34.6646 8.36779C34.5453 8.45225 34.445 8.53714 34.3578 8.63329C34.3076 8.67449 34.2524 8.7113 34.1885 8.74331C34.1519 8.75718 34.1065 8.76624 34.0598 8.77558" stroke="#2D4059" stroke-width="2" stroke-linecap="round"/>
<path d="M40.8038 4.76829C40.8675 4.70456 41.0137 4.59468 41.1102 4.49853C41.2031 4.40604 41.3252 4.34745 41.4488 4.26957C41.6244 4.15893 41.7372 4.07274 41.87 4.0222C41.995 3.97465 42.1125 3.86232 42.2273 3.7751C42.3144 3.67882 42.424 3.60575 42.5568 3.4868C42.5891 3.45906 42.6163 3.44093 42.6443 3.39478" stroke="#2D4059" stroke-width="2" stroke-linecap="round"/>
<path d="M42.1225 3.9717C42.1497 3.88957 42.2593 3.72557 42.3648 3.58753C42.4881 3.44125 42.7076 3.2399 42.8318 3.14334C42.8549 3.1204 42.873 3.0932 42.8642 3.06519" stroke="#2D4059" stroke-width="2" stroke-linecap="round"/>
</svg>
