<svg width="25" height="47" viewBox="0 0 25 47" fill="none" xmlns="http://www.w3.org/2000/svg">
<path d="M23.707 46.3536L0.707031 23.3536L23.707 0.353576" stroke="#2D4059"/>
<path d="M23.707 46.3536L10.707 23.3536L23.707 0.353577" stroke="#2D4059"/>
<path d="M19.7195 5.11116C19.6808 5.15759 19.6187 5.25069 19.5332 5.34029C19.455 5.42221 19.3854 5.50735 19.3037 5.6008C19.2283 5.68707 19.1446 5.86435 19.0702 6.00132C19.0126 6.10748 18.9654 6.20735 18.8837 6.28144C18.8012 6.35625 18.7554 6.46402 18.6931 6.55747C18.6293 6.65311 18.5304 6.90595 18.4364 7.0708C18.3807 7.16836 18.312 7.25735 18.2188 7.3585C18.0955 7.49226 18.0087 7.59148 17.9077 7.72401C17.825 7.83247 17.76 7.93401 17.6897 8.05068C17.6228 8.1618 17.542 8.25274 17.441 8.37349C17.3639 8.4656 17.3087 8.56401 17.2 8.66131C17.0788 8.7697 16.99 8.85194 16.9159 8.93746C16.8346 9.03132 16.772 9.12401 16.6557 9.22889C16.4 9.45948 16.352 9.56734 16.2665 9.68015C16.1816 9.79224 16.0646 9.9094 15.9285 10.1189C15.6777 10.5053 15.582 10.6173 15.512 10.7223C15.381 10.9189 15.1858 11.1456 14.9797 11.3638C14.8791 11.4702 14.7812 11.574 14.6376 11.7367C14.2196 12.2105 14.0658 12.3981 13.9565 12.5268C13.8727 12.6255 13.693 12.8018 13.5637 12.9314C13.4664 13.029 13.3808 13.1376 13.3613 13.1572C13.2956 13.2232 13.4503 12.9749 13.4932 12.8621C13.5336 12.756 13.6136 12.6408 13.6953 12.5238C13.7801 12.4023 13.8236 12.2983 13.913 12.2011C14.1427 11.9512 14.3057 11.6295 14.3953 11.5281C14.4727 11.4406 14.4695 11.3029 14.5236 11.2092C14.5532 11.1581 14.6249 11.1547 14.6482 11.0966C14.6639 10.937 14.6795 10.8129 14.6795 10.7349C14.6795 10.7186 14.6795 10.7494 14.7262 10.7811" stroke="#2D4059" stroke-width="2" stroke-linecap="round"/>
<path d="M13.4487 12.9657C13.3636 13.0742 13.2546 13.214 13.0732 13.4998C12.9284 13.7279 12.6531 14.1091 12.5027 14.319C12.2719 14.641 12.1271 14.8394 12.0181 14.968C11.8649 15.1485 11.7384 15.2827 11.6097 15.4501C11.4316 15.6818 11.1317 16.0527 11.0031 16.2085C10.7795 16.479 10.4625 16.8927 10.311 17.0989C10.2224 17.2194 10.0435 17.4747 9.82893 17.7404C9.63838 17.9765 9.38315 18.3371 9.15227 18.6349C8.9277 18.9246 8.79048 19.024 8.67755 19.1563C8.45831 19.4131 8.16842 19.7468 8.03985 19.9028C7.82641 20.1618 7.69382 20.3227 7.57704 20.4706C7.41937 20.6704 7.27429 20.8664 7.14911 21.0192C7.05993 21.1281 6.88556 21.3559 6.73704 21.5905C6.58861 21.825 6.48796 21.9173 6.32498 22.1543C6.23534 22.2846 6.0843 22.461 5.95526 22.6097C5.84122 22.7412 5.71843 22.8506 5.58975 22.9675C5.56299 22.9918 5.53923 23.0065 5.52348 22.9952C5.47877 22.9631 5.6538 22.5515 5.94885 21.9378C6.15459 21.5099 6.32393 21.2887 6.44001 21.0912C6.7333 20.5922 6.85289 20.5262 6.97703 20.4019C7.10152 20.2773 7.21806 20.1064 7.52326 19.7512C7.76482 19.47 8.15955 18.9647 8.39662 18.6568C8.70509 18.2562 8.81265 18.0841 8.90972 17.9638C9.10848 17.7175 9.33368 17.4621 9.63631 17.1399C9.93798 16.8189 10.0416 16.6608 10.1544 16.5207C10.243 16.4107 10.337 16.2721 10.4307 16.1357C10.5333 15.9863 10.6095 15.7821 10.6757 15.6612C10.7718 15.4856 10.8508 15.3154 10.9865 15.0473C11.0827 14.8573 11.2162 14.7008 11.2862 14.5994C11.3707 14.4771 11.5037 14.3741 11.6283 14.2728C11.7444 14.1783 11.8537 14.1016 11.9589 14.0355C12.0809 13.9588 12.2573 13.7605 12.3752 13.6194C12.45 13.5298 12.5383 13.4175 12.6085 13.2386C12.6545 13.1215 12.7329 13.0362 12.799 12.9466C12.8645 12.8579 12.9583 12.7949 13.0285 12.7094C13.064 12.6662 13.0985 12.6237 13.1412 12.6119C13.1604 12.6066 13.1762 12.6386 13.1841 12.6659C13.233 12.8341 13.0759 13.1048 13.025 13.3575C12.9992 13.4859 12.9128 13.7031 12.7616 14.0635C12.5711 14.5175 12.4536 14.8396 12.3798 14.9637C12.1886 15.2854 12.0879 15.6015 11.9094 15.8852C11.7574 16.1268 11.6213 16.3873 11.5009 16.5351C11.4449 16.6039 11.2111 16.945 10.8495 17.3999C10.5936 17.7219 10.3692 17.9819 10.2951 18.0754C10.2045 18.1897 10.043 18.3548 9.93358 18.4913C9.76901 18.6966 9.66128 18.8373 9.4983 19.0123C9.4023 19.1154 9.27302 19.2648 9.17513 19.3782C9.08509 19.4825 8.96128 19.6073 8.89513 19.7087C8.82727 19.8127 8.73588 19.8798 8.6618 19.9809C8.58199 20.0897 8.49462 20.2219 8.4091 20.3231C8.30446 20.4468 8.23795 20.564 8.1718 20.6654C8.09801 20.7785 7.98922 20.8752 7.91899 20.9687C7.84884 21.062 7.75589 21.1398 7.65859 21.2641C7.5685 21.3791 7.47589 21.4432 7.38629 21.5093C7.19674 21.6493 6.96256 21.9486 6.84974 22.0614C6.72153 22.1896 6.55049 22.3606 6.44911 22.4427C6.35256 22.5208 6.27796 22.6019 6.1886 22.6798C6.06608 22.7867 5.95923 22.8819 5.86578 22.9521C5.84233 22.9678 5.81923 22.9832 5.79193 22.9988C5.76463 23.0144 5.73383 23.0298 5.65543 23.069" stroke="#2D4059" stroke-width="2" stroke-linecap="round"/>
<path d="M3.25211 24.0023C2.88974 24.0023 2.24878 23.9715 2.26033 23.9133C2.28412 23.7934 2.41165 23.7382 2.47429 23.6836C2.50937 23.653 2.35798 23.6834 2.31901 23.6835C2.30787 23.6835 2.32624 23.6528 2.34958 23.6332C2.4602 23.5403 2.76024 23.4358 2.98319 23.3065C3.10006 23.2388 3.20497 23.1549 3.29842 23.0926C3.40455 23.0218 3.50831 22.9215 3.60176 22.8592C3.69521 22.7969 3.7883 22.7195 3.8856 22.6415C4.004 22.5467 4.13784 22.4166 4.25894 22.3187C4.4047 22.2009 4.5429 22.0428 4.64779 21.9493C4.76077 21.8487 4.86163 21.7161 4.97445 21.5762C5.10984 21.4084 5.21957 21.2107 5.30893 21.1055C5.4159 20.9795 5.49956 20.8761 5.6006 20.7633C5.68713 20.6667 5.77956 20.5728 5.86508 20.4638C5.95676 20.347 6.09036 20.1687 6.18789 20.0013C6.29906 19.8104 6.48703 19.5307 6.59611 19.4217C6.72875 19.289 6.79829 19.1882 6.85301 19.0872C6.90546 18.9903 6.99289 18.9161 7.05904 18.8188C7.14281 18.6956 7.28036 18.582 7.38559 18.4688C7.49071 18.3558 7.56829 18.2628 7.64622 18.1655C7.74105 18.0471 7.84035 17.9749 7.93789 17.87C8.02118 17.7804 8.12035 17.6641 8.22174 17.5588C8.32761 17.449 8.42368 17.3141 8.5057 17.2127C8.58365 17.1163 8.71908 17.0187 8.80903 16.89C8.91599 16.737 9.10828 16.5982 9.24431 16.5089C9.38257 16.418 9.48908 16.2874 9.62535 16.1397C9.84766 15.8988 9.96368 15.7974 10.1851 15.576C10.2362 15.5249 10.267 15.4941 10.2906 15.4898C10.3141 15.4855 10.3295 15.5086 10.3221 15.5397C10.2838 15.6993 10.1438 15.8194 9.71494 16.4145C9.40766 16.8409 8.79422 17.5936 8.41167 18.0633C7.89527 18.6974 7.70129 18.8919 7.63152 18.9811C7.50414 19.1441 7.39049 19.2493 7.26589 19.4012C7.14544 19.5481 7.02462 19.6619 6.91986 19.7901C6.7311 20.0211 6.48843 20.1206 6.25906 20.2995C6.12471 20.4042 5.98303 20.4785 5.83871 20.5449C5.80506 20.5604 5.7651 20.5644 5.73756 20.5568C5.71003 20.5492 5.69463 20.5261 5.68669 20.4873C5.64766 20.2962 5.76416 20.1605 5.79134 20.1176C5.79808 20.1069 5.81083 20.1439 5.8071 20.1714C5.7923 20.28 5.67923 20.3619 5.5355 20.4669C5.34349 20.6071 5.19717 20.7119 5.07642 20.8208C4.98726 20.9013 4.9013 20.9685 4.81963 21.0426C4.73716 21.1174 4.6759 21.2406 4.54757 21.3807C4.46271 21.4734 4.3959 21.5598 4.32567 21.6453C4.25156 21.7355 4.17797 21.8319 4.09245 21.9059C3.99878 21.9871 3.94464 22.1193 3.85912 22.2054C3.78112 22.284 3.69591 22.3839 3.57539 22.5511C3.46232 22.708 3.35384 22.8039 3.23309 22.9247C3.13175 23.026 3.05797 23.1385 2.99952 23.205C2.98774 23.2015 2.98004 23.1707 2.97608 23.1356C2.97211 23.1005 2.97211 23.062 2.97211 23.0223" stroke="#2D4059" stroke-width="2" stroke-linecap="round"/>
<path d="M9.64819 29.544C9.57073 29.5209 9.47739 29.4278 9.38803 29.315C9.29567 29.1984 9.20533 29.1165 9.10803 29.004C8.98025 28.8561 8.9174 28.7045 8.83573 28.6072C8.74725 28.5018 8.692 28.2854 8.65268 28.1211C8.6454 28.0907 8.66026 28.0591 8.67578 28.0355C8.70595 27.9897 8.7613 27.9653 8.8194 27.9419C8.96766 27.8824 9.10313 27.9807 9.20463 27.9885C9.28815 27.9949 9.06533 27.8565 8.99125 27.7672C8.89929 27.6563 8.83946 27.5457 8.76958 27.4599C8.69473 27.3679 8.66073 27.1962 8.62165 27.0285C8.59163 26.8996 8.54406 26.7912 8.48176 26.6977C8.417 26.6006 8.33407 26.4958 8.19045 26.3363C8.09433 26.2295 8.03073 26.1378 7.94522 26.0405C7.84751 25.9294 7.782 25.8112 7.72728 25.7022C7.67536 25.5988 7.5874 25.5078 7.50574 25.4337C7.42327 25.3589 7.362 25.2512 7.26855 25.1422C7.18966 25.0502 7.12074 24.9478 7.05844 24.8544C6.99614 24.7609 6.94947 24.6524 6.8951 24.5085C6.84576 24.3778 6.79407 24.2558 6.75884 24.1235C6.71664 23.965 6.70074 23.8512 6.66562 23.4826C6.65773 23.3998 6.21401 23.5539 5.65424 23.7444C5.31412 23.8602 5.15328 23.874 4.90501 23.9128C4.5421 23.9694 4.42995 23.9982 4.3015 24.0217C4.15709 24.0482 4.05662 24.1228 3.93202 24.2003C3.80497 24.2795 3.72202 24.3869 3.65179 24.4803C3.61817 24.5251 3.54329 24.6123 3.5154 24.7056C3.41581 25.039 4.04728 24.7607 4.1916 24.7993C4.36505 24.8457 4.43648 24.9782 4.71602 24.9979C4.88187 25.0096 5.03521 25.0561 5.16378 25.1143C5.36343 25.2047 5.49441 25.2348 5.64211 25.3203C5.78514 25.4032 5.93774 25.569 6.12803 25.7323C6.25594 25.8421 6.34981 25.9502 6.59434 26.1945C6.86894 26.4689 6.93314 26.6344 7.1387 26.8941C7.66227 27.5555 7.72693 27.801 7.80452 27.9025C7.91476 28.0467 7.99107 28.1977 8.11555 28.5045C8.1948 28.6998 8.2636 28.8748 8.27153 28.9138C8.2957 29.0325 8.00787 28.7203 7.89085 28.6227C7.75326 28.5079 7.60373 28.3937 7.37414 28.2573C7.10295 28.0962 6.71101 27.7809 6.51022 27.5805C6.3927 27.4632 6.30407 27.3978 5.77313 26.8589C5.5936 26.6767 5.49534 26.6045 5.17335 26.2786C5.03887 26.1426 4.91995 26.0291 4.74518 25.8931C4.43636 25.6527 4.38328 25.4999 4.27805 25.395C4.16512 25.2976 4.10282 25.2276 4.07563 25.1772C4.06385 25.1499 4.05615 25.1191 4.09488 25.0874" stroke="#2D4059" stroke-width="2" stroke-linecap="round"/>
<path d="M15.0498 36.0043C14.9646 35.9112 14.8095 35.7565 14.5182 35.461C14.3219 35.262 14.2257 35.1415 14.1402 35.0712C14.0546 35.001 13.9615 34.8927 13.8602 34.7914C13.7705 34.7017 13.6815 34.6048 13.5454 34.4727C13.3609 34.2938 13.3003 34.2002 13.2068 34.1108C13.0931 34.002 12.9815 33.8353 12.7795 33.5748C12.6387 33.3932 12.4915 33.2132 12.4095 33.0919C12.3448 32.9961 12.2503 32.9015 12.1568 32.7848C12.0595 32.6633 11.9857 32.5361 11.9234 32.4347C11.8646 32.339 11.7836 32.2328 11.6708 32.1043C11.5572 31.9749 11.4262 31.844 11.1619 31.5836C11.041 31.4644 10.9049 31.3848 10.7687 31.2643C10.6059 31.1201 10.5003 31.0736 10.403 31.0113C10.2944 30.9417 10.1816 30.8715 9.99501 30.7587C9.84716 30.6693 9.7303 30.6536 9.62529 30.5836C9.46802 30.4787 9.34156 30.4048 9.24018 30.3346C9.14786 30.2706 9.02283 30.1948 8.90966 30.1014C8.88191 30.0785 8.85156 30.0548 8.84725 30.0506C8.77416 29.9795 9.18383 30.2401 9.64256 30.551C9.89433 30.7216 10.0868 30.7772 10.413 31.0643C10.575 31.2069 10.6781 31.368 10.7756 31.4967C10.8459 31.5894 10.9273 31.6947 10.9973 31.8233C11.1039 32.019 11.1606 32.1306 11.2771 32.2202C11.4138 32.3254 11.5414 32.3564 11.6467 32.4069C11.7555 32.4592 11.8681 32.5118 11.9927 32.5547C12.1523 32.6098 12.3809 32.7293 12.5873 32.8345C12.8064 32.9462 12.9027 33.0018 13 33.0641C13.1086 33.1337 13.2368 33.2193 13.3849 33.3555C13.4764 33.4398 13.5406 33.5305 13.6223 33.6123C13.727 33.7172 13.7739 33.8339 13.8131 33.9159C13.8933 34.0835 13.5187 33.4703 13.3858 33.2091C13.2823 33.0057 13.1836 32.9094 13.098 32.7771C12.9777 32.5913 12.8803 32.4815 12.7094 32.2293C12.6042 32.074 12.5223 31.9682 12.4019 31.8321C12.25 31.6604 12.0716 31.3466 11.9508 31.1788C11.8629 31.0566 11.7836 30.9648 11.6941 30.8521C11.5394 30.6572 11.4262 30.5374 11.3131 30.4011C11.1191 30.1673 11.0216 30.0628 10.9008 29.942C10.8072 29.8484 10.7182 29.7515 10.5781 29.5961C10.4744 29.481 10.399 29.4015 10.3212 29.3042C10.2744 29.1913 10.1354 28.9442 10.0334 28.752C10.0178 28.7246 10.0024 28.7015 9.96316 28.6544" stroke="#2D4059" stroke-width="2" stroke-linecap="round"/>
<path d="M14.9858 36.0685C15.0478 36.1537 15.1561 36.3397 15.2422 36.5306C15.3252 36.7148 15.4986 36.846 15.5689 36.9315C15.6391 37.017 15.732 37.0793 15.8603 37.2036C15.9575 37.2977 16.074 37.4135 16.1754 37.5187C16.2731 37.62 16.3466 37.7014 16.4282 37.7755C16.5099 37.8496 16.5799 37.9501 16.6616 38.0321C16.7435 38.1144 16.8286 38.2147 16.8989 38.3082C16.9654 38.3967 17.0466 38.4714 17.1127 38.561C17.1782 38.6497 17.272 38.728 17.3654 38.7983C17.4552 38.8658 17.552 38.938 17.6416 39.0121C17.7322 39.0871 17.7853 39.218 17.8594 39.3076C17.9296 39.3926 18.0032 39.4747 18.0887 39.5488C18.1867 39.6337 18.2366 39.7547 18.3376 39.8288C18.442 39.9054 18.532 40.0347 18.606 40.1282C18.6832 40.2255 18.7653 40.2993 18.8355 40.4042C18.8999 40.5003 18.9753 40.5793 19.0494 40.6842C19.1228 40.7881 19.1932 40.8747 19.2555 40.9682C19.3255 41.0616 19.4032 41.1547 19.4887 41.2443C19.5122 41.2639 19.5353 41.2793 19.5591 41.2952" stroke="#2D4059" stroke-width="2" stroke-linecap="round"/>
<path d="M20.408 4.711C20.4149 4.68673 20.4635 4.62417 20.5055 4.56474C20.5456 4.50814 20.5788 4.47059 20.6258 4.42173C20.6627 4.38334 20.7007 4.35195 20.7253 4.30665C20.7489 4.26302 20.7985 4.23353 20.8264 4.18807C20.8403 4.1672 20.8543 4.14272 20.87 4.11834C20.8787 4.10778 20.8891 4.10087 20.9207 4.07283" stroke="#2D4059" stroke-width="2" stroke-linecap="round"/>
<path d="M8.77741 22.2168C8.8318 22.1443 8.88619 22.0718 9.08192 21.8033C9.27764 21.5348 9.61305 21.0724 9.79491 20.8161C10.075 20.4213 10.2603 20.2033 10.3475 20.07C10.4456 19.9201 10.5168 19.7725 10.5902 19.6444C10.7295 19.4009 10.7915 19.1407 10.8466 18.9988C10.9164 18.8191 11.0294 18.6649 11.2534 18.1852C11.3728 17.9296 11.5052 17.6947 11.6795 17.3877C11.7758 17.2181 12.026 16.7904 12.188 16.4762C12.2778 16.3021 12.4392 16.0745 12.577 15.8628C12.8202 15.4891 13.0435 15.1031 13.2088 14.8466C13.3133 14.6843 13.51 14.3988 13.8166 13.9325C14.1806 13.3787 14.4816 12.9783 14.5684 12.864C14.7452 12.6313 14.9577 12.4012 15.0585 12.2778C15.242 12.0533 15.3516 11.9435 15.4932 11.8382C15.717 11.6717 15.7818 11.5315 15.8873 11.4214C15.9806 11.3241 16.0565 11.2199 16.162 11.1193C16.2628 11.023 16.3861 10.9271 16.5508 10.7488C16.7538 10.5291 16.9075 10.2508 17.041 10.0982C17.1273 9.99953 17.2102 9.90137 17.2975 9.80522C17.3847 9.70907 17.4849 9.62666 17.5404 9.57584C17.7065 9.42377 17.3031 9.88214 17.2111 9.99216C17.1181 10.1032 17.019 10.2755 16.9136 10.427C16.824 10.5556 16.7075 10.6788 16.5886 10.9028C16.5461 10.9828 16.5059 11.0452 16.4875 11.073C16.4012 11.203 16.6334 10.7628 16.7616 10.5792C16.8448 10.4602 16.9355 10.3321 17.041 10.1581C17.1694 9.94636 17.302 9.70028 17.3753 9.58092C17.3927 9.55266 17.4119 9.52612 17.4167 9.53024C17.5217 9.62023 17.23 9.89972 17.0559 10.1746C16.8393 10.5163 16.7262 10.715 16.461 11.1583C16.2744 11.47 16.1581 11.6858 16.0802 11.8461C15.979 12.0546 15.8472 12.2528 15.7506 12.4597C15.6662 12.6405 15.5538 12.8121 15.4804 12.936C15.4031 13.0667 15.334 13.1786 15.2561 13.2886C15.1717 13.4079 15.0868 13.5082 14.9861 13.6182C14.8766 13.7378 14.7665 13.8653 14.6747 13.9799C14.5544 14.1301 14.4824 14.2774 14.3863 14.4102C14.3005 14.5287 14.2352 14.6982 14.1391 14.8315C14.0252 14.9893 13.933 15.1839 13.8324 15.3303C13.7041 15.5169 13.6034 15.669 13.4982 15.8065C13.3513 15.9984 13.2556 16.1723 13.1456 16.3377C13.0428 16.4922 12.9534 16.6398 12.8936 16.7726C12.8386 16.8945 12.7518 17.0151 12.6694 17.148C12.5562 17.3307 12.4771 17.4546 12.3764 17.5875C12.245 17.7611 12.1749 17.9216 12.0743 18.1047C11.9615 18.3097 11.8821 18.4798 11.7721 18.6269C11.6199 18.8303 11.4975 19.1391 11.392 19.3728C11.3136 19.5468 11.0684 20.0516 10.8018 20.5444C10.6843 20.7618 10.591 20.8884 10.49 21.0624C10.4026 21.2131 10.3619 21.3372 10.284 21.4473C10.1767 21.5988 10.0416 21.7949 9.8677 21.9827C9.75776 22.1014 9.68448 22.2619 9.56993 22.3675C9.42099 22.5048 9.35483 22.6558 9.26762 22.7658C9.16804 22.8914 9.08013 23.0404 8.99291 23.1778C8.88805 23.3429 8.81422 23.4802 8.76862 23.5078C8.61852 23.5987 8.35821 23.0525 8.17801 22.8263C8.13293 22.7697 8.09999 22.7116 8.05439 22.6704C8.03151 22.6497 7.99066 22.6564 7.96745 22.6745C7.94424 22.6926 7.93517 22.7289 7.94863 22.7521C8.01738 22.8707 8.19998 22.8849 8.33733 22.9355C8.48593 22.9901 8.6483 23.0497 8.78606 23.1186C8.94037 23.1956 9.11529 23.2239 9.44919 23.2242C9.51942 23.2242 9.54603 23.197 9.54644 23.2012C9.55742 23.3147 9.32736 23.3244 9.17188 23.3841C8.92843 23.4774 8.76917 23.5442 8.54487 23.5902C8.2332 23.6542 7.7731 23.6453 7.59619 23.7228C7.46322 23.781 7.94286 23.8826 8.27196 24.0791C9.02604 24.5291 9.1521 24.7161 9.2988 24.8306C9.50013 24.9879 9.68338 25.1924 9.839 25.4344C9.94739 25.603 10.0317 25.7413 10.114 25.9885C10.1754 26.173 10.2696 26.355 10.2883 26.4429C10.3559 26.7612 10.1971 25.9358 10.1603 25.6703C10.0845 25.1237 10.0136 24.8913 9.94984 24.7584C9.83968 24.5614 9.80315 24.3788 9.73914 24.2273C9.72074 24.195 9.70261 24.1678 9.68393 24.1398" stroke="#2D4059" stroke-width="2" stroke-linecap="round"/>
<path d="M18.8005 39.142C18.7459 39.1238 18.5275 38.9239 18.3341 38.7806C18.1991 38.6806 18.0869 38.6112 17.8902 38.4194C17.7759 38.3079 17.6748 38.2267 17.5831 38.1124C17.4485 37.9448 17.3545 37.7877 17.2625 37.659C17.1811 37.5452 17.0979 37.43 17.0152 37.3293C16.9313 37.2272 16.7963 37.0553 16.6856 36.8945C16.6084 36.7823 16.5392 36.6521 16.4613 36.5236C16.3572 36.352 16.237 36.2307 16.1273 36.0888C15.9822 35.9012 15.8074 35.673 15.6739 35.4844C15.5683 35.3354 15.4953 35.1961 15.349 34.9264C15.2373 34.7203 15.1113 34.483 14.9871 34.2392C14.9043 34.0767 14.8086 33.8957 14.7399 33.7266C14.6078 33.4015 14.4789 33.2913 14.401 33.1813C14.3011 33.0401 14.1498 32.7886 13.9755 32.5362C13.8576 32.3654 13.7103 32.1475 13.5633 31.9728C13.4519 31.8404 13.3438 31.6618 13.2473 31.5331C13.1401 31.3902 13.023 31.2129 12.9132 31.0163C12.7592 30.7402 12.5846 30.4454 12.4278 30.2147C12.3065 30.036 12.117 29.7669 11.9427 29.4963C11.789 29.2577 11.7594 29.0884 11.6587 28.9693C11.5185 28.8036 11.4847 28.5939 11.3702 28.297C11.3053 28.1286 11.2555 27.9989 11.1825 27.825C11.0644 27.5439 11.0177 27.4127 10.9671 27.2799C10.9096 27.1287 10.7979 26.9732 10.7564 26.8721C10.6912 26.7132 10.7155 26.1309 10.6785 26.0205C10.6428 25.9136 10.7424 26.276 10.8109 26.4453C10.9175 26.7087 11.0253 27.3155 11.1087 27.6863C11.1419 27.8338 11.1819 27.9338 11.2094 27.9433C11.3824 28.003 11.1457 27.5781 11.0909 27.3764C10.9833 26.9808 10.7979 26.7809 10.7566 26.6209C10.6781 26.3174 10.5051 26.0859 10.4269 25.9018C10.3663 25.7591 10.3034 25.6271 10.1845 25.3074C10.1428 25.1953 10.1018 25.1233 10.0789 25.0911C10.0001 24.9802 10.1655 25.3876 10.2659 25.7122C10.3731 26.0584 10.4946 26.2842 10.5866 26.4731C10.6463 26.5955 10.7331 26.6974 10.8109 26.8119C10.9074 26.9538 10.9803 27.082 11.0764 27.1692C11.1005 27.191 11.1176 27.2193 11.1406 27.2243C11.1635 27.2292 11.1907 27.2111 11.1911 27.1927C11.1935 27.0861 11.1273 26.9913 11.1271 26.9454C11.1268 26.8468 11.2825 27.1094 11.333 27.2423C11.3834 27.3745 11.4929 27.5303 11.5528 27.6863C11.6095 27.8341 11.6671 27.9791 11.8088 28.1441C11.9068 28.2582 11.9418 28.4005 12.0379 28.5379C12.1286 28.6675 12.189 28.8395 12.2623 28.9776C12.328 29.1011 12.4088 29.2428 12.5049 29.4533C12.5689 29.5935 12.6285 29.7191 12.7247 29.9203C12.7895 30.0561 12.8757 30.1586 13.0175 30.3599C13.1071 30.487 13.2323 30.6707 13.3655 30.8635C13.5277 31.0983 13.6174 31.2574 13.6953 31.3903C13.7711 31.5194 13.9372 31.7777 14.0251 31.9946C14.08 32.1301 14.2487 32.3552 14.3774 32.617C14.4611 32.7873 14.5696 32.9601 14.6978 33.1756C14.8029 33.3521 14.8536 33.51 14.9315 33.693C15.0142 33.8872 15.1096 34.1775 15.2974 34.7127C15.399 35.0023 15.4948 35.1764 15.5588 35.3185C15.6147 35.4427 15.7052 35.5428 15.8013 35.63C15.9638 35.7774 16.3551 35.7444 16.4653 35.7723C16.576 35.8003 16.3194 35.5439 16.2461 35.3883C16.183 35.2545 16.0815 35.1319 15.9988 34.999C15.9269 34.8835 15.8524 34.7747 15.7745 34.6647C15.6901 34.5454 15.6052 34.4451 15.509 34.3579C15.4678 34.3077 15.431 34.2525 15.399 34.1887C15.3852 34.152 15.3761 34.1067 15.3668 34.06" stroke="#2D4059" stroke-width="2" stroke-linecap="round"/>
<path d="M19.374 40.8039C19.4378 40.8676 19.5477 41.0138 19.6438 41.1103C19.7363 41.2032 19.7949 41.3253 19.8728 41.4489C19.9834 41.6245 20.0696 41.7373 20.1201 41.8702C20.1677 41.9951 20.28 42.1126 20.3672 42.2274C20.4635 42.3145 20.5366 42.4241 20.6555 42.5569C20.6833 42.5892 20.7014 42.6164 20.7476 42.6444" stroke="#2D4059" stroke-width="2" stroke-linecap="round"/>
<path d="M20.1706 42.1225C20.2528 42.1497 20.4168 42.2593 20.5548 42.3648C20.7011 42.4881 20.9024 42.7076 20.999 42.8318C21.0219 42.8549 21.0491 42.873 21.0771 42.8642" stroke="#2D4059" stroke-width="2" stroke-linecap="round"/>
</svg>
