<svg width="25" height="47" viewBox="0 0 25 47" fill="none" xmlns="http://www.w3.org/2000/svg">
<path d="M0.435302 0.353577L23.4353 23.3536L0.435302 46.3536" stroke="#2D4059"/>
<path d="M0.435303 0.353577L13.4353 23.3536L0.435303 46.3536" stroke="#2D4059"/>
<path d="M4.42285 41.596C4.46158 41.5496 4.52365 41.4565 4.60917 41.3669C4.68735 41.2849 4.75698 41.1998 4.83865 41.1063C4.91403 41.0201 4.99778 40.8428 5.0721 40.7058C5.1297 40.5997 5.17698 40.4998 5.25865 40.4257C5.34112 40.3509 5.38698 40.2431 5.44928 40.1497C5.51304 40.054 5.61191 39.8012 5.70595 39.6364C5.76159 39.5388 5.83031 39.4498 5.92353 39.3487C6.0468 39.2149 6.13364 39.1157 6.23468 38.9831C6.31735 38.8747 6.38238 38.7731 6.45261 38.6565C6.51951 38.5453 6.60031 38.4544 6.70134 38.3337C6.77841 38.2416 6.83364 38.1431 6.94237 38.0458C7.0635 37.9375 7.15237 37.8552 7.22645 37.7697C7.30777 37.6758 7.3703 37.5831 7.48662 37.4783C7.74235 37.2477 7.7903 37.1398 7.87582 37.027C7.96078 36.9149 8.07777 36.7978 8.2138 36.5882C8.46461 36.2019 8.5603 36.0898 8.6303 35.9848C8.76131 35.7883 8.9565 35.5616 9.16265 35.3434C9.26324 35.2369 9.3611 35.1332 9.50471 34.9704C9.92273 34.4967 10.0765 34.309 10.1858 34.1803C10.2697 34.0816 10.4494 33.9054 10.5786 33.7757C10.6759 33.6782 10.7616 33.5696 10.781 33.55C10.8467 33.484 10.692 33.7322 10.6491 33.845C10.6087 33.9512 10.5287 34.0664 10.447 34.1834C10.3623 34.3048 10.3187 34.4089 10.2293 34.5061C9.99959 34.7559 9.83663 35.0776 9.74703 35.179C9.66963 35.2666 9.67283 35.4043 9.61869 35.498C9.58918 35.5491 9.51743 35.5525 9.49409 35.6106C9.47846 35.7702 9.46283 35.8943 9.46283 35.9722C9.46283 35.9886 9.46283 35.9578 9.41616 35.926" stroke="#2D4059" stroke-width="2" stroke-linecap="round"/>
<path d="M10.6936 33.7414C10.7788 33.6329 10.8877 33.4931 11.0692 33.2073C11.2139 32.9792 11.4893 32.5981 11.6397 32.3882C11.8704 32.0662 12.0152 31.8678 12.1243 31.7392C12.2775 31.5586 12.4039 31.4244 12.5326 31.257C12.7107 31.0253 13.0106 30.6544 13.1393 30.4987C13.3628 30.2281 13.6798 29.8144 13.8313 29.6083C13.9199 29.4878 14.0989 29.2325 14.3134 28.9667C14.504 28.7307 14.7592 28.3701 14.9901 28.0723C15.2146 27.7826 15.3519 27.6832 15.4648 27.5509C15.684 27.294 15.9739 26.9603 16.1025 26.8043C16.3159 26.5454 16.4485 26.3844 16.5653 26.2365C16.723 26.0368 16.868 25.8408 16.9932 25.6879C17.0824 25.5791 17.2568 25.3512 17.4053 25.1166C17.5537 24.8821 17.6544 24.7899 17.8174 24.5529C17.907 24.4226 18.058 24.2462 18.1871 24.0974C18.3011 23.966 18.4239 23.8565 18.5526 23.7396C18.5793 23.7153 18.6031 23.7007 18.6189 23.712C18.6636 23.7441 18.4885 24.1557 18.1935 24.7693C17.9877 25.1972 17.8184 25.4184 17.7023 25.616C17.409 26.115 17.2894 26.181 17.1653 26.3052C17.0408 26.4298 16.9243 26.6007 16.6191 26.956C16.3775 27.2372 15.9828 27.7424 15.7457 28.0503C15.4372 28.4509 15.3297 28.623 15.2326 28.7433C15.0339 28.9896 14.8087 29.2451 14.506 29.5672C14.2044 29.8883 14.1007 30.0464 13.9879 30.1865C13.8993 30.2965 13.8053 30.4351 13.7116 30.5715C13.609 30.7208 13.5328 30.9251 13.4666 31.046C13.3705 31.2216 13.2915 31.3918 13.1558 31.6599C13.0597 31.8499 12.9261 32.0064 12.8561 32.1077C12.7717 32.2301 12.6387 32.333 12.5141 32.4344C12.398 32.5289 12.2887 32.6055 12.1834 32.6717C12.0614 32.7484 11.885 32.9467 11.7672 33.0877C11.6923 33.1773 11.6041 33.2897 11.5338 33.4685C11.4878 33.5856 11.4095 33.6709 11.3433 33.7605C11.2778 33.8493 11.1841 33.9122 11.1138 33.9977C11.0783 34.041 11.0438 34.0835 11.0011 34.0953C10.9819 34.1006 10.9661 34.0685 10.9582 34.0412C10.9093 33.873 11.0665 33.6023 11.1173 33.3496C11.1432 33.2213 11.2296 33.0041 11.3808 32.6437C11.5713 32.1897 11.6888 31.8675 11.7625 31.7435C11.9538 31.4218 12.0544 31.1057 12.2329 30.822C12.3849 30.5803 12.5211 30.3198 12.6415 30.172C12.6975 30.1033 12.9313 29.7622 13.2928 29.3073C13.5488 28.9853 13.7731 28.7252 13.8472 28.6318C13.9379 28.5174 14.0993 28.3524 14.2088 28.2159C14.3733 28.0106 14.4811 27.8698 14.644 27.6948C14.74 27.5918 14.8693 27.4424 14.9672 27.329C15.0572 27.2247 15.1811 27.0998 15.2472 26.9985C15.3151 26.8945 15.4064 26.8273 15.4805 26.7263C15.5603 26.6174 15.6477 26.4852 15.7332 26.3841C15.8379 26.2603 15.9044 26.1432 15.9705 26.0418C16.0443 25.9287 16.1531 25.8319 16.2233 25.7385C16.2935 25.6451 16.3864 25.5673 16.4837 25.4431C16.5738 25.328 16.6664 25.264 16.756 25.1978C16.9456 25.0579 17.1798 24.7586 17.2926 24.6458C17.4208 24.5176 17.5918 24.3465 17.6932 24.2645C17.7898 24.1864 17.8644 24.1053 17.9537 24.0273C18.0763 23.9205 18.1831 23.8253 18.2766 23.755C18.3 23.7394 18.3231 23.724 18.3504 23.7084C18.3777 23.6927 18.4085 23.6773 18.4869 23.6381" stroke="#2D4059" stroke-width="2" stroke-linecap="round"/>
<path d="M20.8902 22.7048C21.2526 22.7048 21.8936 22.7356 21.882 22.7938C21.8582 22.9138 21.7307 22.969 21.668 23.0236C21.633 23.0541 21.7844 23.0238 21.8233 23.0237C21.8345 23.0236 21.8161 23.0544 21.7928 23.074C21.6821 23.1669 21.3821 23.2714 21.1591 23.4006C21.0423 23.4684 20.9374 23.5523 20.8439 23.6146C20.7378 23.6853 20.634 23.7856 20.5406 23.8479C20.4471 23.9102 20.354 23.9877 20.2567 24.0656C20.1383 24.1605 20.0045 24.2906 19.8834 24.3884C19.7376 24.5063 19.5994 24.6644 19.4945 24.7578C19.3816 24.8585 19.2807 24.991 19.1679 25.1309C19.0325 25.2988 18.9228 25.4964 18.8334 25.6017C18.7264 25.7276 18.6428 25.831 18.5417 25.9438C18.4552 26.0405 18.3628 26.1344 18.2773 26.2433C18.1856 26.3601 18.052 26.5385 17.9544 26.7059C17.8433 26.8967 17.6553 27.1764 17.5462 27.2855C17.4136 27.4181 17.344 27.5189 17.2893 27.62C17.2369 27.7168 17.1494 27.791 17.0833 27.8883C16.9995 28.0115 16.862 28.1251 16.7567 28.2383C16.6516 28.3513 16.574 28.4443 16.4961 28.5416C16.4013 28.66 16.302 28.7323 16.2044 28.8372C16.1212 28.9267 16.022 29.0431 15.9206 29.1483C15.8147 29.2582 15.7187 29.3931 15.6366 29.4945C15.5587 29.5908 15.4233 29.6885 15.3333 29.8172C15.2263 29.9702 15.0341 30.1089 14.898 30.1983C14.7598 30.2891 14.6533 30.4197 14.517 30.5674C14.2947 30.8084 14.1787 30.9097 13.9572 31.1312C13.9061 31.1823 13.8753 31.2131 13.8518 31.2174C13.8282 31.2217 13.8128 31.1986 13.8203 31.1674C13.8585 31.0079 13.9985 30.8878 14.4274 30.2927C14.7347 29.8663 15.3481 29.1135 15.7307 28.6438C16.2471 28.0098 16.441 27.8153 16.5108 27.726C16.6382 27.5631 16.7518 27.4578 16.8764 27.3059C16.9969 27.1591 17.1177 27.0453 17.2225 26.9171C17.4112 26.6861 17.6539 26.5865 17.8833 26.4077C18.0176 26.3029 18.1593 26.2286 18.3036 26.1622C18.3373 26.1468 18.3772 26.1428 18.4048 26.1503C18.4323 26.1579 18.4477 26.181 18.4556 26.2199C18.4947 26.411 18.3782 26.5467 18.351 26.5896C18.3443 26.6002 18.3315 26.5632 18.3352 26.5358C18.35 26.4271 18.4631 26.3453 18.6068 26.2403C18.7988 26.1 18.9452 25.9953 19.0659 25.8863C19.1551 25.8059 19.241 25.7386 19.3227 25.6645C19.4052 25.5897 19.4664 25.4666 19.5948 25.3264C19.6796 25.2338 19.7464 25.1474 19.8167 25.0618C19.8908 24.9716 19.9644 24.8753 20.0499 24.8012C20.1436 24.7201 20.1977 24.5878 20.2832 24.5017C20.3612 24.4232 20.4464 24.3232 20.5669 24.156C20.68 23.9992 20.7885 23.9032 20.9092 23.7825C21.0106 23.6811 21.0844 23.5686 21.1428 23.5021C21.1546 23.5056 21.1623 23.5364 21.1663 23.5715C21.1702 23.6067 21.1702 23.6452 21.1702 23.6848" stroke="#2D4059" stroke-width="2" stroke-linecap="round"/>
<path d="M14.4941 17.1631C14.5716 17.1862 14.6649 17.2793 14.7543 17.3922C14.8467 17.5088 14.937 17.5906 15.0343 17.7032C15.1621 17.851 15.2249 18.0027 15.3066 18.1C15.3951 18.2054 15.4503 18.4217 15.4897 18.586C15.4969 18.6164 15.4821 18.6481 15.4666 18.6716C15.4364 18.7175 15.381 18.7419 15.3229 18.7652C15.1747 18.8247 15.0392 18.7265 14.9377 18.7187C14.8542 18.7122 15.077 18.8506 15.1511 18.94C15.243 19.0509 15.3029 19.1614 15.3728 19.2473C15.4476 19.3392 15.4816 19.5109 15.5207 19.6787C15.5507 19.8075 15.5983 19.916 15.6606 20.0095C15.7253 20.1066 15.8083 20.2114 15.9519 20.3709C16.048 20.4776 16.1116 20.5693 16.1971 20.6666C16.2948 20.7778 16.3603 20.896 16.415 21.005C16.467 21.1084 16.5549 21.1993 16.6366 21.2734C16.7191 21.3482 16.7803 21.456 16.8738 21.565C16.9527 21.657 17.0216 21.7593 17.0839 21.8528C17.1462 21.9462 17.1929 22.0547 17.2472 22.1987C17.2966 22.3294 17.3483 22.4514 17.3835 22.5837C17.4257 22.7421 17.4416 22.856 17.4767 23.2245C17.4846 23.3073 17.9283 23.1533 18.4881 22.9627C18.8282 22.847 18.9891 22.8331 19.2373 22.7944C19.6002 22.7378 19.7124 22.709 19.8408 22.6854C19.9852 22.6589 20.0857 22.5844 20.2103 22.5068C20.3374 22.4277 20.4203 22.3203 20.4905 22.2268C20.5242 22.1821 20.599 22.0949 20.6269 22.0015C20.7265 21.6682 20.0951 21.9465 19.9507 21.9078C19.7773 21.8614 19.7059 21.729 19.4263 21.7093C19.2605 21.6976 19.1071 21.6511 18.9786 21.5928C18.7789 21.5024 18.6479 21.4723 18.5002 21.3868C18.3572 21.304 18.2046 21.1382 18.0143 20.9749C17.8864 20.8651 17.7925 20.7569 17.548 20.5126C17.2734 20.2383 17.2092 20.0728 17.0036 19.8131C16.4801 19.1517 16.4154 18.9061 16.3378 18.8046C16.2276 18.6604 16.1513 18.5095 16.0268 18.2026C15.9475 18.0073 15.8787 17.8323 15.8708 17.7934C15.8466 17.6747 16.1345 17.9868 16.2515 18.0845C16.3891 18.1993 16.5386 18.3135 16.7682 18.4499C17.0394 18.6109 17.4313 18.9262 17.6321 19.1266C17.7496 19.244 17.8383 19.3093 18.3692 19.8482C18.5487 20.0304 18.647 20.1027 18.969 20.4285C19.1035 20.5646 19.2224 20.6781 19.3972 20.8141C19.706 21.0545 19.7591 21.2073 19.8643 21.3121C19.9772 21.4096 20.0395 21.4796 20.0667 21.53C20.0785 21.5573 20.0862 21.5881 20.0475 21.6198" stroke="#2D4059" stroke-width="2" stroke-linecap="round"/>
<path d="M9.09253 10.7028C9.1777 10.7959 9.33286 10.9506 9.62418 11.2461C9.8204 11.4452 9.91666 11.5657 10.0022 11.6359C10.0877 11.7062 10.1808 11.8144 10.2822 11.9158C10.3719 12.0055 10.4608 12.1023 10.5969 12.2344C10.7814 12.4134 10.8421 12.5069 10.9355 12.5963C11.0493 12.7051 11.1608 12.8719 11.3629 13.1324C11.5037 13.3139 11.6508 13.4939 11.7328 13.6153C11.7975 13.711 11.8921 13.8057 11.9855 13.9223C12.0829 14.0439 12.1567 14.1711 12.2189 14.2725C12.2778 14.3681 12.3587 14.4744 12.4715 14.6029C12.5852 14.7322 12.7162 14.8631 12.9804 15.1235C13.1014 15.2427 13.2374 15.3223 13.3736 15.4428C13.5365 15.587 13.642 15.6336 13.7393 15.6959C13.848 15.7654 13.9608 15.8357 14.1473 15.9485C14.2952 16.0379 14.412 16.0536 14.517 16.1236C14.6743 16.2284 14.8008 16.3023 14.9022 16.3726C14.9945 16.4365 15.1195 16.5123 15.2327 16.6058C15.2604 16.6287 15.2908 16.6523 15.2951 16.6565C15.3682 16.7276 14.9585 16.4671 14.4998 16.1561C14.248 15.9855 14.0555 15.9299 13.7293 15.6428C13.5673 15.5002 13.4642 15.3391 13.3667 15.2104C13.2965 15.1178 13.215 15.0125 13.145 14.8839C13.0385 14.6881 12.9817 14.5766 12.8653 14.487C12.7286 14.3818 12.6009 14.3507 12.4957 14.3002C12.3868 14.248 12.2742 14.1953 12.1496 14.1524C11.99 14.0974 11.7614 13.9779 11.555 13.8726C11.3359 13.7609 11.2397 13.7053 11.1424 13.643C11.0337 13.5735 10.9055 13.4879 10.7575 13.3516C10.6659 13.2673 10.6017 13.1766 10.5201 13.0948C10.4153 12.9899 10.3684 12.8733 10.3292 12.7913C10.2491 12.6236 10.6237 13.2368 10.7565 13.498C10.8601 13.7015 10.9587 13.7977 11.0444 13.93C11.1646 14.1159 11.2621 14.2257 11.433 14.4779C11.5382 14.6331 11.62 14.739 11.7404 14.875C11.8923 15.0467 12.0708 15.3606 12.1915 15.5284C12.2795 15.6505 12.3587 15.7423 12.4482 15.855C12.603 16.0499 12.7162 16.1698 12.8292 16.3061C13.0232 16.5399 13.1208 16.6444 13.2415 16.7651C13.3352 16.8588 13.4241 16.9557 13.5642 17.1111C13.668 17.2261 13.7433 17.3057 13.8211 17.403C13.8679 17.5159 14.007 17.763 14.1089 17.9551C14.1246 17.9826 14.14 18.0057 14.1792 18.0528" stroke="#2D4059" stroke-width="2" stroke-linecap="round"/>
<path d="M9.15656 10.6386C9.0945 10.5535 8.98623 10.3675 8.90013 10.1765C8.81709 9.99232 8.6437 9.86117 8.57347 9.77565C8.50321 9.69011 8.41037 9.62784 8.28204 9.50359C8.18483 9.40947 8.0683 9.2937 7.96692 9.18847C7.86928 9.08712 7.79577 9.00577 7.71411 8.93169C7.63243 8.8576 7.56244 8.75704 7.48077 8.67502C7.39886 8.59276 7.31371 8.49244 7.24347 8.39899C7.17697 8.3105 7.09577 8.23577 7.02963 8.14618C6.96413 8.05746 6.87038 7.97911 6.77693 7.90888C6.68714 7.8414 6.59038 7.76911 6.50078 7.69503C6.41013 7.62007 6.35704 7.48911 6.28296 7.39951C6.2127 7.31453 6.13911 7.23245 6.0536 7.15836C5.95564 7.0735 5.90578 6.95245 5.80475 6.87836C5.70029 6.80177 5.61038 6.67245 5.5363 6.579C5.45915 6.48169 5.37705 6.40785 5.30682 6.30297C5.24248 6.20689 5.16705 6.12785 5.09297 6.02297C5.01958 5.91908 4.94912 5.83245 4.88682 5.739C4.81682 5.64555 4.73912 5.55245 4.6536 5.46285C4.63015 5.44325 4.60705 5.42785 4.58325 5.41199" stroke="#2D4059" stroke-width="2" stroke-linecap="round"/>
<path d="M3.7343 41.9962C3.7274 42.0204 3.67886 42.083 3.6368 42.1424C3.59674 42.199 3.56357 42.2366 3.51654 42.2854C3.47959 42.3238 3.44158 42.3552 3.41705 42.4005C3.39343 42.4441 3.34387 42.4736 3.31594 42.5191C3.30203 42.54 3.28801 42.5644 3.27237 42.5888C3.26363 42.5994 3.25327 42.6063 3.22168 42.6343" stroke="#2D4059" stroke-width="2" stroke-linecap="round"/>
<path d="M15.3649 24.4903C15.3105 24.5628 15.2561 24.6354 15.0604 24.9039C14.8647 25.1724 14.5293 25.6347 14.3474 25.891C14.0673 26.2858 13.8821 26.5039 13.7949 26.6371C13.6967 26.787 13.6255 26.9346 13.5522 27.0628C13.4128 27.3063 13.3508 27.5664 13.2957 27.7083C13.226 27.888 13.1129 28.0422 12.8889 28.522C12.7696 28.7775 12.6371 29.0125 12.4628 29.3195C12.3665 29.489 12.1163 29.9168 11.9544 30.2309C11.8646 30.4051 11.7031 30.6327 11.5654 30.8443C11.3221 31.2181 11.0988 31.604 10.9336 31.8606C10.8291 32.0228 10.6323 32.3084 10.3258 32.7747C9.9617 33.3284 9.66072 33.7288 9.57392 33.8431C9.3971 34.0759 9.18466 34.306 9.08385 34.4293C8.90035 34.6538 8.79074 34.7636 8.64913 34.869C8.42533 35.0355 8.36055 35.1757 8.25507 35.2857C8.16173 35.3831 8.08585 35.4872 7.98036 35.5879C7.87951 35.6841 7.75621 35.78 7.59152 35.9583C7.38855 36.1781 7.23482 36.4564 7.10131 36.609C7.015 36.7076 6.9321 36.8058 6.84488 36.9019C6.75766 36.9981 6.6574 37.0805 6.60191 37.1313C6.43586 37.2834 6.83925 36.825 6.93127 36.715C7.02419 36.6039 7.12329 36.4316 7.22878 36.2801C7.31832 36.1515 7.43481 36.0284 7.55375 35.8044C7.59625 35.7243 7.63644 35.6619 7.65484 35.6342C7.74109 35.5042 7.50897 35.9443 7.38069 36.128C7.29753 36.247 7.2068 36.3751 7.10131 36.5491C6.97298 36.7608 6.84035 37.0069 6.767 37.1262C6.74963 37.1545 6.73047 37.181 6.72566 37.1769C6.62066 37.0869 6.91232 36.8074 7.08648 36.5326C7.30307 36.1908 7.41613 35.9921 7.68135 35.5489C7.8679 35.2371 7.98421 35.0213 8.06209 34.861C8.16338 34.6526 8.29517 34.4543 8.39173 34.2475C8.47615 34.0666 8.58856 33.895 8.6619 33.7711C8.73926 33.6405 8.80832 33.5286 8.8862 33.4186C8.97067 33.2992 9.05555 33.1989 9.15623 33.0889C9.26568 32.9693 9.37585 32.8418 9.46761 32.7273C9.58792 32.5771 9.6599 32.4298 9.75604 32.297C9.84182 32.1785 9.90713 32.0089 10.0033 31.8757C10.1172 31.7179 10.2093 31.5233 10.31 31.3768C10.4383 31.1903 10.5389 31.0381 10.6442 30.9006C10.791 30.7087 10.8867 30.5349 10.9967 30.3695C11.0995 30.215 11.1889 30.0673 11.2488 29.9345C11.3037 29.8126 11.3905 29.6921 11.4729 29.5591C11.5862 29.3764 11.6652 29.2526 11.7659 29.1196C11.8974 28.946 11.9674 28.7856 12.0681 28.6025C12.1808 28.3974 12.2602 28.2274 12.3703 28.0803C12.5224 27.8768 12.6448 27.5681 12.7503 27.3343C12.8288 27.1604 13.0739 26.6555 13.3405 26.1627C13.4581 25.9454 13.5513 25.8188 13.6523 25.6448C13.7397 25.4941 13.7804 25.3699 13.8583 25.2599C13.9656 25.1083 14.1007 24.9123 14.2746 24.7245C14.3846 24.6058 14.4579 24.4453 14.5724 24.3396C14.7213 24.2023 14.7875 24.0513 14.8747 23.9413C14.9743 23.8157 15.0622 23.6668 15.1494 23.5294C15.2543 23.3643 15.3281 23.227 15.3737 23.1993C15.5238 23.1085 15.7841 23.6547 15.9643 23.8809C16.0094 23.9375 16.0423 23.9956 16.0879 24.0368C16.1108 24.0575 16.1517 24.0508 16.1749 24.0327C16.1981 24.0145 16.2072 23.9783 16.1937 23.9551C16.125 23.8365 15.9424 23.8222 15.805 23.7717C15.6564 23.717 15.494 23.6574 15.3563 23.5886C15.202 23.5115 15.027 23.4833 14.6931 23.483C14.6229 23.4829 14.5963 23.5102 14.5959 23.5059C14.5849 23.3925 14.815 23.3827 14.9705 23.3231C15.2139 23.2298 15.3732 23.1629 15.5975 23.1169C15.9091 23.053 16.3692 23.0619 16.5461 22.9844C16.6791 22.9262 16.1995 22.8245 15.8704 22.6281C15.1163 22.178 14.9902 21.9911 14.8435 21.8765C14.6422 21.7193 14.459 21.5147 14.3033 21.2727C14.1949 21.1042 14.1106 20.9659 14.0284 20.7186C13.967 20.5342 13.8727 20.3522 13.8541 20.2643C13.7864 19.9459 13.9453 20.7714 13.9821 21.0369C14.0579 21.5835 14.1288 21.8158 14.1925 21.9488C14.3026 22.1457 14.3392 22.3284 14.4032 22.4799C14.4216 22.5122 14.4397 22.5394 14.4584 22.5674" stroke="#2D4059" stroke-width="2" stroke-linecap="round"/>
<path d="M5.3418 7.56519C5.39646 7.58332 5.61485 7.7833 5.80824 7.92656C5.94321 8.02654 6.05548 8.09591 6.25216 8.28779C6.36646 8.3993 6.46753 8.48049 6.55928 8.59477C6.69384 8.76237 6.78783 8.91947 6.87986 9.04817C6.96121 9.16194 7.04441 9.27713 7.12709 9.37781C7.21101 9.47999 7.34603 9.65183 7.45673 9.81267C7.53392 9.92481 7.60315 10.0551 7.68103 10.1835C7.78513 10.3552 7.90532 10.4765 8.01507 10.6184C8.16015 10.8059 8.33496 11.0341 8.46847 11.2227C8.57401 11.3718 8.64702 11.511 8.7933 11.7808C8.90504 11.9868 9.03106 12.2241 9.15522 12.4679C9.23801 12.6305 9.33378 12.8115 9.40245 12.9805C9.5345 13.3056 9.66342 13.4158 9.7413 13.5258C9.84125 13.667 9.99252 13.9185 10.1668 14.171C10.2847 14.3417 10.432 14.5597 10.579 14.7344C10.6904 14.8668 10.7985 15.0453 10.8951 15.174C11.0023 15.3169 11.1193 15.4942 11.2291 15.6909C11.3831 15.9669 11.5578 16.2617 11.7145 16.4925C11.8359 16.6712 12.0253 16.9402 12.1996 17.2108C12.3533 17.4494 12.383 17.6188 12.4837 17.7378C12.6238 17.9036 12.6577 18.1132 12.7721 18.4102C12.837 18.5786 12.8868 18.7082 12.9599 18.8821C13.078 19.1632 13.1247 19.2944 13.1752 19.4273C13.2328 19.5785 13.3444 19.734 13.3859 19.8351C13.4511 19.994 13.4268 20.5762 13.4638 20.6866C13.4996 20.7935 13.3999 20.4312 13.3314 20.2618C13.2248 19.9984 13.117 19.3917 13.0336 19.0208C13.0004 18.8733 12.9604 18.7733 12.9329 18.7639C12.7599 18.7042 12.9967 19.1291 13.0515 19.3307C13.159 19.7264 13.3444 19.9263 13.3858 20.0863C13.4642 20.3898 13.6373 20.6213 13.7154 20.8053C13.7761 20.9481 13.8389 21.08 13.9579 21.3998C13.9995 21.5118 14.0405 21.5838 14.0635 21.6161C14.1423 21.727 13.9768 21.3196 13.8764 20.995C13.7693 20.6487 13.6477 20.4229 13.5557 20.2341C13.4961 20.1117 13.4093 20.0098 13.3314 19.8952C13.2349 19.7533 13.162 19.6252 13.0659 19.538C13.0418 19.5161 13.0247 19.4878 13.0017 19.4829C12.9788 19.4779 12.9516 19.4961 12.9512 19.5145C12.9488 19.6211 13.0151 19.7158 13.0152 19.7617C13.0155 19.8603 12.8599 19.5977 12.8093 19.4649C12.759 19.3326 12.6494 19.1769 12.5896 19.0208C12.5328 18.873 12.4753 18.728 12.3335 18.563C12.2355 18.449 12.2006 18.3066 12.1044 18.1693C12.0137 18.0397 11.9533 17.8676 11.88 17.7296C11.8144 17.6061 11.7336 17.4644 11.6374 17.2538C11.5734 17.1137 11.5138 16.988 11.4177 16.7868C11.3528 16.651 11.2666 16.5485 11.1248 16.3473C11.0353 16.2201 10.91 16.0365 10.7768 15.8436C10.6146 15.6089 10.5249 15.4497 10.447 15.3169C10.3713 15.1877 10.2051 14.9294 10.1172 14.7125C10.0623 14.5771 9.89362 14.352 9.76493 14.0902C9.6812 13.9199 9.57277 13.7471 9.44448 13.5316C9.33942 13.3551 9.28873 13.1971 9.21085 13.0142C9.12815 12.8199 9.0327 12.5296 8.84495 11.9945C8.74333 11.7049 8.64757 11.5308 8.58357 11.3886C8.52768 11.2645 8.43715 11.1643 8.341 11.0771C8.17856 10.9298 7.7872 10.9627 7.67705 10.9348C7.56635 10.9068 7.82291 11.1632 7.89626 11.3189C7.95931 11.4526 8.06081 11.5753 8.14349 11.7081C8.21544 11.8237 8.28991 11.9324 8.36779 12.0424C8.45225 12.1618 8.53714 12.2621 8.63329 12.3493C8.67449 12.3994 8.7113 12.4546 8.74331 12.5185C8.75718 12.5552 8.76624 12.6005 8.77558 12.6472" stroke="#2D4059" stroke-width="2" stroke-linecap="round"/>
<path d="M4.76829 5.90325C4.70456 5.83952 4.59468 5.69338 4.49853 5.59682C4.40604 5.50393 4.34745 5.38187 4.26957 5.25825C4.15893 5.08264 4.07274 4.96981 4.0222 4.83699C3.97465 4.71206 3.86232 4.59457 3.7751 4.47974C3.67882 4.39266 3.60575 4.28306 3.4868 4.15024C3.45906 4.11796 3.44093 4.09076 3.39478 4.06274" stroke="#2D4059" stroke-width="2" stroke-linecap="round"/>
<path d="M3.9717 4.58466C3.88957 4.55746 3.72557 4.44785 3.58753 4.34237C3.44125 4.21903 3.2399 3.99954 3.14334 3.87537C3.1204 3.8523 3.0932 3.83417 3.06519 3.84296" stroke="#2D4059" stroke-width="2" stroke-linecap="round"/>
</svg>
