<svg width="47" height="25" viewBox="0 0 47 25" fill="none" xmlns="http://www.w3.org/2000/svg">
<path d="M0.353516 23.7071L23.3535 0.707092L46.3535 23.7071" stroke="#2D4059"/>
<path d="M0.353516 23.7071L23.3535 10.7071L46.3535 23.7071" stroke="#2D4059"/>
<path d="M41.5961 19.7195C41.5496 19.6808 41.4565 19.6187 41.3669 19.5332C41.285 19.455 41.1999 19.3854 41.1064 19.3037C41.0201 19.2284 40.8429 19.1446 40.7059 19.0703C40.5997 19.0127 40.4999 18.9654 40.4258 18.8837C40.351 18.8013 40.2432 18.7554 40.1497 18.6931C40.0541 18.6294 39.8013 18.5305 39.6364 18.4364C39.5389 18.3808 39.4499 18.3121 39.3487 18.2189C39.215 18.0956 39.1157 18.0088 38.9832 17.9077C38.8747 17.825 38.7732 17.76 38.6565 17.6898C38.5454 17.6229 38.4545 17.5421 38.3337 17.4411C38.2416 17.364 38.1432 17.3088 38.0459 17.2C37.9375 17.0789 37.8553 16.99 37.7698 16.9159C37.6759 16.8346 37.5832 16.7721 37.4783 16.6558C37.2477 16.4 37.1399 16.3521 37.0271 16.2666C36.915 16.1816 36.7978 16.0646 36.5883 15.9286C36.202 15.6778 36.0899 15.5821 35.9849 15.5121C35.7884 15.3811 35.5616 15.1859 35.3435 14.9797C35.237 14.8792 35.1332 14.7813 34.9705 14.6377C34.4968 14.2197 34.3091 14.0659 34.1804 13.9566C34.0817 13.8727 33.9054 13.693 33.7758 13.5638C33.6782 13.4665 33.5697 13.3808 33.5501 13.3614C33.484 13.2957 33.7323 13.4504 33.8451 13.4933C33.9512 13.5337 34.0664 13.6137 34.1834 13.6954C34.3049 13.7801 34.409 13.8237 34.5061 13.9131C34.756 14.1428 35.0777 14.3058 35.1791 14.3954C35.2667 14.4728 35.4044 14.4696 35.498 14.5237C35.5491 14.5532 35.5525 14.625 35.6106 14.6483C35.7702 14.6639 35.8943 14.6796 35.9723 14.6796C35.9886 14.6796 35.9578 14.6796 35.9261 14.7262" stroke="#2D4059" stroke-width="2" stroke-linecap="round"/>
<path d="M33.7415 13.4488C33.633 13.3636 33.4932 13.2547 33.2074 13.0732C32.9793 12.9285 32.5981 12.6531 32.3883 12.5027C32.0662 12.272 31.8678 12.1272 31.7392 12.0181C31.5587 11.8649 31.4245 11.7385 31.2571 11.6098C31.0254 11.4317 30.6545 11.1318 30.4987 11.0031C30.2282 10.7796 29.8145 10.4626 29.6083 10.3111C29.4878 10.2225 29.2326 10.0435 28.9668 9.82899C28.7308 9.63844 28.3702 9.38321 28.0723 9.15233C27.7826 8.92776 27.6832 8.79054 27.5509 8.67761C27.2941 8.45837 26.9604 8.16848 26.8044 8.03991C26.5454 7.82647 26.3845 7.69388 26.2366 7.5771C26.0368 7.41943 25.8408 7.27435 25.688 7.14917C25.5791 7.05999 25.3513 6.88562 25.1167 6.73711C24.8822 6.58867 24.7899 6.48802 24.553 6.32504C24.4226 6.2354 24.2462 6.08436 24.0975 5.95532C23.966 5.84129 23.8566 5.71849 23.7397 5.58981C23.7154 5.56305 23.7007 5.53929 23.712 5.52354C23.7442 5.47883 24.1557 5.65386 24.7694 5.94891C25.1973 6.15465 25.4185 6.32399 25.616 6.44007C26.1151 6.73336 26.181 6.85295 26.3053 6.97709C26.4299 7.10159 26.6008 7.21812 26.9561 7.52332C27.2372 7.76488 27.7425 8.15961 28.0504 8.39668C28.451 8.70515 28.6231 8.81271 28.7434 8.90978C28.9897 9.10854 29.2452 9.33374 29.5673 9.63637C29.8884 9.93804 30.0464 10.0417 30.1865 10.1545C30.2965 10.2431 30.4352 10.3371 30.5715 10.4308C30.7209 10.5334 30.9252 10.6096 31.046 10.6758C31.2216 10.7719 31.3918 10.8509 31.6599 10.9866C31.85 11.0827 32.0064 11.2163 32.1078 11.2863C32.2301 11.3707 32.3331 11.5037 32.4345 11.6283C32.5289 11.7444 32.6056 11.8537 32.6718 11.959C32.7484 12.081 32.9467 12.2574 33.0878 12.3752C33.1774 12.4501 33.2897 12.5383 33.4686 12.6086C33.5857 12.6546 33.671 12.7329 33.7606 12.7991C33.8493 12.8646 33.9123 12.9583 33.9978 13.0286C34.041 13.0641 34.0835 13.0986 34.0953 13.1413C34.1006 13.1605 34.0686 13.1763 34.0413 13.1842C33.8731 13.2331 33.6024 13.0759 33.3497 13.0251C33.2214 12.9992 33.0041 12.9128 32.6438 12.7616C32.1897 12.5711 31.8676 12.4536 31.7436 12.3799C31.4218 12.1886 31.1058 12.088 30.822 11.9095C30.5804 11.7575 30.3199 11.6213 30.1721 11.5009C30.1033 11.4449 29.7622 11.2111 29.3073 10.8496C28.9853 10.5936 28.7253 10.3693 28.6318 10.2952C28.5175 10.2045 28.3524 10.0431 28.2159 9.93364C28.0107 9.76907 27.8699 9.66134 27.6949 9.49836C27.5918 9.40236 27.4424 9.27308 27.329 9.17519C27.2247 9.08516 27.0999 8.96134 26.9985 8.89519C26.8945 8.82734 26.8274 8.73595 26.7263 8.66186C26.6175 8.58206 26.4853 8.49468 26.3842 8.40916C26.2604 8.30453 26.1432 8.23802 26.0419 8.17186C25.9288 8.09807 25.832 7.98928 25.7385 7.91905C25.6452 7.8489 25.5674 7.75595 25.4431 7.65865C25.3281 7.56856 25.264 7.47595 25.1979 7.38635C25.0579 7.1968 24.7586 6.96262 24.6458 6.8498C24.5176 6.72159 24.3466 6.55056 24.2646 6.44917C24.1865 6.35263 24.1053 6.27802 24.0274 6.18866C23.9205 6.06614 23.8253 5.95929 23.7551 5.86584C23.7394 5.84239 23.724 5.81929 23.7084 5.79199C23.6928 5.76469 23.6774 5.73389 23.6382 5.65549" stroke="#2D4059" stroke-width="2" stroke-linecap="round"/>
<path d="M22.7048 3.25217C22.7048 2.8898 22.7356 2.24884 22.7938 2.26039C22.9138 2.28418 22.969 2.41171 23.0236 2.47436C23.0541 2.50943 23.0238 2.35804 23.0237 2.31907C23.0236 2.30793 23.0544 2.32631 23.074 2.34964C23.1669 2.46026 23.2714 2.7603 23.4006 2.98325C23.4684 3.10013 23.5523 3.20503 23.6146 3.29848C23.6853 3.40461 23.7856 3.50837 23.8479 3.60182C23.9102 3.69527 23.9877 3.78836 24.0656 3.88567C24.1605 4.00406 24.2906 4.1379 24.3884 4.259C24.5063 4.40476 24.6644 4.54296 24.7578 4.64785C24.8585 4.76083 24.991 4.86169 25.1309 4.97451C25.2988 5.1099 25.4964 5.21963 25.6017 5.30899C25.7276 5.41596 25.831 5.49962 25.9438 5.60066C26.0405 5.68719 26.1344 5.77962 26.2433 5.86514C26.3601 5.95682 26.5385 6.09042 26.7059 6.18796C26.8967 6.29912 27.1764 6.48709 27.2855 6.59617C27.4181 6.72881 27.5189 6.79835 27.62 6.85307C27.7168 6.90552 27.791 6.99295 27.8883 7.0591C28.0115 7.14287 28.1251 7.28042 28.2383 7.38565C28.3513 7.49077 28.4443 7.56835 28.5416 7.64628C28.66 7.74111 28.7323 7.84042 28.8372 7.93795C28.9267 8.02124 29.0431 8.12041 29.1483 8.2218C29.2582 8.32767 29.3931 8.42374 29.4945 8.50576C29.5908 8.58371 29.6885 8.71914 29.8172 8.80909C29.9702 8.91605 30.1089 9.10834 30.1983 9.24438C30.2891 9.38263 30.4197 9.48914 30.5674 9.62541C30.8084 9.84772 30.9097 9.96374 31.1312 10.1852C31.1823 10.2363 31.2131 10.2671 31.2174 10.2906C31.2217 10.3142 31.1986 10.3296 31.1674 10.3221C31.0079 10.2839 30.8878 10.1439 30.2927 9.71501C29.8663 9.40772 29.1135 8.79428 28.6438 8.41173C28.0098 7.89533 27.8153 7.70135 27.726 7.63158C27.5631 7.5042 27.4578 7.39055 27.3059 7.26595C27.1591 7.1455 27.0453 7.02469 26.9171 6.91992C26.6861 6.73116 26.5865 6.48849 26.4077 6.25912C26.3029 6.12478 26.2286 5.98309 26.1622 5.83877C26.1468 5.80512 26.1428 5.76516 26.1503 5.73762C26.1579 5.71009 26.181 5.69469 26.2199 5.68676C26.411 5.64773 26.5467 5.76422 26.5896 5.79141C26.6002 5.79814 26.5632 5.81089 26.5358 5.80716C26.4271 5.79236 26.3453 5.67929 26.2403 5.53556C26.1 5.34356 25.9953 5.19723 25.8863 5.07648C25.8059 4.98732 25.7386 4.90136 25.6645 4.81969C25.5897 4.73722 25.4666 4.67596 25.3264 4.54763C25.2338 4.46277 25.1474 4.39596 25.0618 4.32573C24.9716 4.25163 24.8753 4.17803 24.8012 4.09251C24.7201 3.99884 24.5878 3.9447 24.5017 3.85918C24.4232 3.78118 24.3232 3.69597 24.156 3.57545C23.9992 3.46238 23.9032 3.3539 23.7825 3.23315C23.6811 3.13181 23.5686 3.05804 23.5021 2.99958C23.5056 2.9878 23.5364 2.9801 23.5715 2.97614C23.6067 2.97217 23.6452 2.97217 23.6848 2.97217" stroke="#2D4059" stroke-width="2" stroke-linecap="round"/>
<path d="M17.1631 9.64825C17.1862 9.57079 17.2793 9.47745 17.3921 9.38809C17.5087 9.29573 17.5906 9.20539 17.7031 9.10809C17.851 8.98031 18.0026 8.91746 18.0999 8.83579C18.2053 8.74731 18.4217 8.69206 18.5859 8.65274C18.6164 8.64546 18.648 8.66032 18.6716 8.67584C18.7174 8.70601 18.7418 8.76136 18.7651 8.81946C18.8247 8.96772 18.7264 9.10319 18.7186 9.20469C18.7122 9.28822 18.8505 9.06539 18.9399 8.99131C19.0508 8.89935 19.1613 8.83952 19.2472 8.76964C19.3392 8.69479 19.5109 8.66079 19.6786 8.62171C19.8075 8.59169 19.9159 8.54413 20.0094 8.48183C20.1065 8.41706 20.2113 8.33413 20.3708 8.19051C20.4776 8.09439 20.5693 8.03079 20.6666 7.94528C20.7777 7.84757 20.8959 7.78206 21.0049 7.72735C21.1083 7.67542 21.1993 7.58746 21.2734 7.5058C21.3482 7.42333 21.4559 7.36206 21.5649 7.26861C21.6569 7.18972 21.7593 7.1208 21.8527 7.0585C21.9462 6.9962 22.0547 6.94953 22.1986 6.89516C22.3293 6.84582 22.4513 6.79413 22.5836 6.7589C22.7421 6.7167 22.8559 6.7008 23.2245 6.66568C23.3073 6.65779 23.1532 6.21407 22.9627 5.65431C22.8469 5.31418 22.8331 5.15334 22.7943 4.90507C22.7377 4.54216 22.7089 4.43001 22.6854 4.30156C22.6589 4.15715 22.5843 4.05668 22.5067 3.93208C22.4276 3.80504 22.3202 3.72208 22.2267 3.65185C22.182 3.61823 22.0948 3.54335 22.0015 3.51547C21.6681 3.41587 21.9464 4.04734 21.9078 4.19166C21.8614 4.36511 21.7289 4.43654 21.7092 4.71608C21.6975 4.88193 21.651 5.03528 21.5928 5.16384C21.5024 5.36349 21.4723 5.49447 21.3868 5.64217C21.3039 5.7852 21.1381 5.9378 20.9748 6.12809C20.865 6.256 20.7569 6.34987 20.5126 6.5944C20.2382 6.869 20.0727 6.9332 19.813 7.13877C19.1516 7.66233 18.9061 7.727 18.8046 7.80458C18.6604 7.91482 18.5094 7.99113 18.2026 8.11561C18.0072 8.19486 17.8323 8.26366 17.7933 8.27159C17.6746 8.29576 17.9867 8.00793 18.0844 7.89091C18.1992 7.75332 18.3134 7.6038 18.4498 7.3742C18.6109 7.10301 18.9261 6.71107 19.1266 6.51028C19.2439 6.39277 19.3093 6.30413 19.8482 5.77319C20.0304 5.59366 20.1026 5.49541 20.4285 5.17341C20.5645 5.03893 20.678 4.92001 20.814 4.74524C21.0544 4.43642 21.2072 4.38334 21.3121 4.27811C21.4095 4.16518 21.4795 4.10288 21.5299 4.0757C21.5572 4.06391 21.588 4.05621 21.6197 4.09494" stroke="#2D4059" stroke-width="2" stroke-linecap="round"/>
<path d="M10.7026 15.0499C10.7957 14.9647 10.9504 14.8095 11.246 14.5182C11.445 14.322 11.5655 14.2257 11.6357 14.1402C11.706 14.0547 11.8142 13.9616 11.9156 13.8602C12.0053 13.7705 12.1022 13.6816 12.2342 13.5455C12.4132 13.361 12.5068 13.3003 12.5961 13.2069C12.7049 13.0931 12.8717 12.9816 13.1322 12.7795C13.3137 12.6387 13.4938 12.4916 13.6151 12.4096C13.7108 12.3449 13.8055 12.2503 13.9222 12.1569C14.0437 12.0595 14.1709 11.9857 14.2723 11.9234C14.368 11.8646 14.4742 11.7837 14.6027 11.6709C14.732 11.5572 14.863 11.4262 15.1233 11.162C15.2425 11.041 15.3221 10.905 15.4427 10.7688C15.5868 10.6059 15.6334 10.5004 15.6957 10.4031C15.7653 10.2944 15.8355 10.1816 15.9483 9.99507C16.0377 9.84722 16.0534 9.73036 16.1234 9.62536C16.2283 9.46809 16.3021 9.34162 16.3724 9.24024C16.4363 9.14792 16.5121 9.02289 16.6056 8.90973C16.6285 8.88198 16.6521 8.85163 16.6563 8.84731C16.7275 8.77422 16.4669 9.18389 16.156 9.64262C15.9853 9.89439 15.9297 10.0869 15.6426 10.4131C15.5001 10.5751 15.3389 10.6782 15.2103 10.7757C15.1176 10.8459 15.0123 10.9274 14.8837 10.9974C14.688 11.1039 14.5764 11.1607 14.4868 11.2771C14.3816 11.4138 14.3506 11.5415 14.3 11.6467C14.2478 11.7556 14.1952 11.8681 14.1522 11.9927C14.0972 12.1524 13.9777 12.381 13.8725 12.5874C13.7608 12.8065 13.7052 12.9027 13.6429 13C13.5733 13.1087 13.4877 13.2369 13.3514 13.3849C13.2672 13.4765 13.1764 13.5407 13.0946 13.6223C12.9898 13.7271 12.8731 13.774 12.7911 13.8132C12.6234 13.8933 13.2366 13.5187 13.4978 13.3859C13.7013 13.2823 13.7976 13.1837 13.9299 13.098C14.1157 12.9778 14.2255 12.8803 14.4777 12.7094C14.633 12.6042 14.7388 12.5224 14.8749 12.402C15.0465 12.25 15.3604 12.0716 15.5282 11.9509C15.6504 11.8629 15.7421 11.7837 15.8548 11.6942C16.0498 11.5394 16.1696 11.4262 16.3059 11.3132C16.5397 11.1192 16.6442 11.0216 16.765 10.9009C16.8586 10.8072 16.9555 10.7183 17.1109 10.5782C17.2259 10.4744 17.3055 10.3991 17.4028 10.3213C17.5157 10.2745 17.7628 10.1354 17.955 10.0335C17.9824 10.0178 18.0055 10.0024 18.0526 9.96322" stroke="#2D4059" stroke-width="2" stroke-linecap="round"/>
<path d="M10.6385 14.9858C10.5533 15.0479 10.3674 15.1562 10.1764 15.2423C9.99219 15.3253 9.86105 15.4987 9.77553 15.5689C9.68999 15.6392 9.62771 15.732 9.50346 15.8604C9.40935 15.9576 9.29358 16.0741 9.18835 16.1755C9.087 16.2731 9.00565 16.3466 8.93157 16.4283C8.85748 16.51 8.75692 16.58 8.6749 16.6616C8.59263 16.7435 8.49232 16.8287 8.39887 16.8989C8.31038 16.9654 8.23565 17.0466 8.14605 17.1128C8.05734 17.1783 7.97899 17.272 7.90875 17.3655C7.84128 17.4553 7.76899 17.552 7.69491 17.6416C7.61995 17.7323 7.48899 17.7854 7.39939 17.8594C7.31441 17.9297 7.23232 18.0033 7.15824 18.0888C7.07338 18.1868 6.95232 18.2366 6.87824 18.3376C6.80165 18.4421 6.67233 18.532 6.57888 18.6061C6.48156 18.6832 6.40773 18.7653 6.30284 18.8356C6.20676 18.8999 6.12773 18.9753 6.02285 19.0494C5.91895 19.1228 5.83233 19.1933 5.73888 19.2556C5.64543 19.3256 5.55233 19.4033 5.46273 19.4888C5.44313 19.5122 5.42773 19.5353 5.41187 19.5591" stroke="#2D4059" stroke-width="2" stroke-linecap="round"/>
<path d="M41.9961 20.4081C42.0204 20.415 42.0829 20.4635 42.1423 20.5056C42.199 20.5457 42.2365 20.5788 42.2854 20.6259C42.3237 20.6628 42.3551 20.7008 42.4004 20.7253C42.4441 20.749 42.4736 20.7985 42.519 20.8265C42.5399 20.8404 42.5644 20.8544 42.5887 20.87C42.5993 20.8788 42.6062 20.8891 42.6343 20.9207" stroke="#2D4059" stroke-width="2" stroke-linecap="round"/>
<path d="M24.4904 8.77747C24.5629 8.83186 24.6354 8.88625 24.9039 9.08198C25.1725 9.2777 25.6348 9.61312 25.8911 9.79497C26.2859 10.0751 26.5039 10.2603 26.6372 10.3475C26.7871 10.4457 26.9347 10.5169 27.0628 10.5902C27.3063 10.7296 27.5665 10.7916 27.7084 10.8467C27.8881 10.9164 28.0423 11.0295 28.522 11.2535C28.7776 11.3728 29.0125 11.5053 29.3195 11.6796C29.4891 11.7759 29.9169 12.0261 30.231 12.188C30.4052 12.2778 30.6327 12.4393 30.8444 12.577C31.2181 12.8203 31.6041 13.0436 31.8607 13.2088C32.0229 13.3133 32.3084 13.5101 32.7747 13.8166C33.3285 14.1807 33.7289 14.4817 33.8432 14.5685C34.076 14.7453 34.3061 14.9577 34.4294 15.0585C34.6539 15.242 34.7637 15.3517 34.8691 15.4933C35.0355 15.7171 35.1758 15.7818 35.2858 15.8873C35.3831 15.9807 35.4873 16.0565 35.588 16.162C35.6842 16.2629 35.7801 16.3862 35.9584 16.5509C36.1781 16.7538 36.4564 16.9076 36.609 17.0411C36.7077 17.1274 36.8058 17.2103 36.902 17.2975C36.9981 17.3847 37.0806 17.485 37.1314 17.5405C37.2834 17.7065 36.8251 17.3031 36.7151 17.2111C36.604 17.1182 36.4317 17.0191 36.2802 16.9136C36.1516 16.8241 36.0284 16.7076 35.8044 16.5886C35.7244 16.5461 35.662 16.506 35.6342 16.4876C35.5042 16.4013 35.9444 16.6334 36.128 16.7617C36.2471 16.8449 36.3751 16.9356 36.5491 17.0411C36.7609 17.1694 37.0069 17.302 37.1263 17.3754C37.1546 17.3928 37.1811 17.4119 37.177 17.4167C37.087 17.5217 36.8075 17.2301 36.5327 17.0559C36.1909 16.8393 35.9922 16.7263 35.5489 16.461C35.2372 16.2745 35.0214 16.1582 34.8611 16.0803C34.6526 15.979 34.4544 15.8472 34.2475 15.7507C34.0667 15.6662 33.8951 15.5538 33.7712 15.4805C33.6405 15.4031 33.5286 15.3341 33.4186 15.2562C33.2993 15.1717 33.199 15.0868 33.089 14.9862C32.9694 14.8767 32.8419 14.7665 32.7273 14.6748C32.5771 14.5545 32.4298 14.4825 32.297 14.3864C32.1785 14.3006 32.009 14.2353 31.8758 14.1391C31.7179 14.0252 31.5233 13.9331 31.3769 13.8324C31.1903 13.7041 31.0382 13.6034 30.9007 13.4982C30.7088 13.3514 30.5349 13.2557 30.3696 13.1457C30.215 13.0428 30.0674 12.9535 29.9346 12.8936C29.8127 12.8387 29.6921 12.7519 29.5592 12.6695C29.3765 12.5562 29.2526 12.4772 29.1197 12.3765C28.9461 12.245 28.7856 12.175 28.6025 12.0743C28.3975 11.9616 28.2274 11.8822 28.0803 11.7721C27.8769 11.62 27.5681 11.4976 27.3344 11.3921C27.1605 11.3136 26.6556 11.0685 26.1628 10.8019C25.9454 10.6843 25.8188 10.5911 25.6448 10.4901C25.4942 10.4027 25.37 10.362 25.26 10.2841C25.1084 10.1768 24.9123 10.0417 24.7246 9.86777C24.6058 9.75782 24.4453 9.68454 24.3397 9.56999C24.2024 9.42105 24.0514 9.3549 23.9414 9.26768C23.8158 9.1681 23.6668 9.08019 23.5295 8.99298C23.3643 8.88812 23.227 8.81428 23.1994 8.76868C23.1085 8.61858 23.6547 8.35827 23.8809 8.17807C23.9375 8.13299 23.9956 8.10005 24.0368 8.05445C24.0575 8.03157 24.0508 7.99072 24.0327 7.96751C24.0146 7.9443 23.9783 7.93523 23.9551 7.94869C23.8366 8.01744 23.8223 8.20004 23.7718 8.3374C23.7171 8.48599 23.6575 8.64836 23.5887 8.78612C23.5116 8.94043 23.4833 9.11535 23.483 9.44925C23.483 9.51948 23.5102 9.54609 23.506 9.5465C23.3925 9.55748 23.3828 9.32743 23.3232 9.17194C23.2298 8.92849 23.163 8.76923 23.117 8.54493C23.0531 8.23326 23.0619 7.77316 22.9845 7.59625C22.9262 7.46328 22.8246 7.94292 22.6282 8.27202C22.1781 9.0261 21.9911 9.15217 21.8766 9.29886C21.7194 9.50019 21.5148 9.68344 21.2728 9.83906C21.1042 9.94745 20.9659 10.0318 20.7187 10.114C20.5343 10.1754 20.3523 10.2697 20.2643 10.2883C19.946 10.356 20.7714 10.1971 21.0369 10.1603C21.5835 10.0845 21.8159 10.0136 21.9488 9.9499C22.1458 9.83975 22.3285 9.80321 22.48 9.7392C22.5122 9.7208 22.5394 9.70267 22.5675 9.68399" stroke="#2D4059" stroke-width="2" stroke-linecap="round"/>
<path d="M7.56519 18.8006C7.58332 18.7459 7.7833 18.5275 7.92656 18.3342C8.02654 18.1992 8.09591 18.0869 8.28779 17.8902C8.3993 17.7759 8.48049 17.6749 8.59477 17.5831C8.76237 17.4486 8.91947 17.3546 9.04817 17.2625C9.16194 17.1812 9.27713 17.098 9.37781 17.0153C9.47999 16.9314 9.65183 16.7964 9.81267 16.6857C9.92481 16.6085 10.0551 16.5392 10.1835 16.4614C10.3552 16.3573 10.4765 16.2371 10.6184 16.1273C10.8059 15.9822 11.0341 15.8074 11.2227 15.6739C11.3718 15.5684 11.511 15.4954 11.7808 15.3491C11.9868 15.2374 12.2241 15.1113 12.4679 14.9872C12.6305 14.9044 12.8115 14.8086 12.9805 14.7399C13.3056 14.6079 13.4158 14.479 13.5258 14.4011C13.667 14.3011 13.9185 14.1499 14.171 13.9756C14.3417 13.8577 14.5597 13.7104 14.7344 13.5634C14.8668 13.452 15.0453 13.3439 15.174 13.2473C15.3169 13.1401 15.4942 13.023 15.6909 12.9133C15.9669 12.7593 16.2617 12.5846 16.4925 12.4279C16.6712 12.3065 16.9402 12.1171 17.2108 11.9428C17.4494 11.7891 17.6188 11.7594 17.7378 11.6587C17.9036 11.5186 18.1132 11.4847 18.4102 11.3703C18.5786 11.3054 18.7082 11.2556 18.8821 11.1825C19.1632 11.0644 19.2944 11.0177 19.4273 10.9672C19.5785 10.9096 19.734 10.798 19.8351 10.7565C19.994 10.6913 20.5762 10.7155 20.6866 10.6786C20.7935 10.6428 20.4312 10.7425 20.2618 10.811C19.9984 10.9176 19.3917 11.0254 19.0208 11.1088C18.8733 11.1419 18.7733 11.182 18.7639 11.2095C18.7042 11.3825 19.1291 11.1457 19.3307 11.0909C19.7264 10.9834 19.9263 10.798 20.0863 10.7566C20.3898 10.6782 20.6213 10.5051 20.8053 10.427C20.9481 10.3663 21.08 10.3035 21.3998 10.1845C21.5118 10.1429 21.5838 10.1019 21.6161 10.0789C21.727 10.0001 21.3196 10.1656 20.995 10.266C20.6487 10.3731 20.4229 10.4947 20.2341 10.5867C20.1117 10.6463 20.0098 10.7331 19.8952 10.811C19.7533 10.9075 19.6252 10.9804 19.538 11.0765C19.5161 11.1006 19.4878 11.1177 19.4829 11.1406C19.4779 11.1636 19.4961 11.1908 19.5145 11.1912C19.6211 11.1936 19.7158 11.1273 19.7617 11.1272C19.8603 11.1269 19.5977 11.2825 19.4649 11.3331C19.3326 11.3834 19.1769 11.493 19.0208 11.5528C18.873 11.6096 18.728 11.6671 18.563 11.8089C18.449 11.9069 18.3066 11.9418 18.1693 12.038C18.0397 12.1287 17.8676 12.1891 17.7296 12.2624C17.6061 12.328 17.4644 12.4088 17.2538 12.505C17.1137 12.5689 16.988 12.6286 16.7868 12.7247C16.651 12.7896 16.5485 12.8758 16.3473 13.0176C16.2201 13.1071 16.0365 13.2324 15.8436 13.3656C15.6089 13.5278 15.4497 13.6175 15.3169 13.6954C15.1877 13.7711 14.9294 13.9373 14.7125 14.0252C14.5771 14.0801 14.352 14.2488 14.0902 14.3775C13.9199 14.4612 13.7471 14.5696 13.5316 14.6979C13.3551 14.803 13.1971 14.8537 13.0142 14.9315C12.8199 15.0142 12.5296 15.1097 11.9945 15.2974C11.7049 15.3991 11.5308 15.4948 11.3886 15.5588C11.2645 15.6147 11.1643 15.7052 11.0771 15.8014C10.9298 15.9638 10.9627 16.3552 10.9348 16.4653C10.9068 16.576 11.1632 16.3195 11.3189 16.2461C11.4526 16.1831 11.5753 16.0816 11.7081 15.9989C11.8237 15.927 11.9324 15.8525 12.0424 15.7746C12.1618 15.6901 12.2621 15.6053 12.3493 15.5091C12.3994 15.4679 12.4546 15.4311 12.5185 15.3991C12.5552 15.3852 12.6005 15.3762 12.6472 15.3668" stroke="#2D4059" stroke-width="2" stroke-linecap="round"/>
<path d="M5.90325 19.3741C5.83952 19.4378 5.69338 19.5477 5.59682 19.6439C5.50393 19.7364 5.38187 19.7949 5.25825 19.8728C5.08264 19.9835 4.96981 20.0697 4.83699 20.1202C4.71206 20.1677 4.59457 20.2801 4.47974 20.3673C4.39266 20.4636 4.28306 20.5366 4.15024 20.6556C4.11796 20.6833 4.09076 20.7015 4.06274 20.7476" stroke="#2D4059" stroke-width="2" stroke-linecap="round"/>
<path d="M4.58453 20.1707C4.55734 20.2528 4.44773 20.4168 4.34225 20.5549C4.2189 20.7011 3.99942 20.9025 3.87525 20.9991C3.85218 21.022 3.83405 21.0492 3.84284 21.0772" stroke="#2D4059" stroke-width="2" stroke-linecap="round"/>
</svg>
